<?xml version="1.0" encoding="UTF-8"?>
<svg width="50px" height="50px" viewBox="0 0 50 50" version="1.1" xmlns="http://www.w3.org/2000/svg" xmlns:xlink="http://www.w3.org/1999/xlink">
    <!-- Generator: Sketch 55.2 (78181) - https://sketchapp.com -->
    <title>instagram</title>
    <desc>Created with Sketch.</desc>
    <g id="instagram" stroke="none" stroke-width="1" fill="none" fill-rule="evenodd">
        <g transform="translate(3.000000, 3.000000)" fill="#1B3C92" fill-rule="nonzero" id="Shape">
            <path d="M12.76,0 L31.24,0 C38.28,0 44,5.72 44,12.76 L44,31.24 C44,38.28 38.28,44 31.24,44 L12.76,44 C5.72,44 0,38.28 0,31.24 L0,12.76 C0,5.72 5.72,0 12.76,0 L12.76,0 Z M12.32,4.4 C7.942,4.4 4.4,7.942 4.4,12.32 L4.4,31.68 C4.4,36.058 7.942,39.6 12.32,39.6 L31.68,39.6 C36.058,39.6 39.6,36.058 39.6,31.68 L39.6,12.32 C39.6,7.942 36.058,4.4 31.68,4.4 L12.32,4.4 L12.32,4.4 Z M33.55,7.7 C35.068,7.7 36.3,8.932 36.3,10.45 C36.3,11.968 35.068,13.2 33.55,13.2 C32.032,13.2 30.8,11.968 30.8,10.45 C30.8,8.932 32.032,7.7 33.55,7.7 L33.55,7.7 Z M22,11 C28.072,11 33,15.928 33,22 C33,28.072 28.072,33 22,33 C15.928,33 11,28.072 11,22 C11,15.928 15.928,11 22,11 L22,11 Z M22,15.4 C18.348,15.4 15.4,18.348 15.4,22 C15.4,25.652 18.348,28.6 22,28.6 C25.652,28.6 28.6,25.652 28.6,22 C28.6,18.348 25.652,15.4 22,15.4 Z"></path>
        </g>
    </g>
</svg>