<?xml version="1.0" encoding="UTF-8"?>
<svg width="84px" height="84px" viewBox="0 0 84 84" version="1.1" xmlns="http://www.w3.org/2000/svg" xmlns:xlink="http://www.w3.org/1999/xlink">
    <!-- Generator: Sketch 55.2 (78181) - https://sketchapp.com -->
    <title>diet</title>
    <desc>Created with Sketch.</desc>
    <g id="diet" stroke="none" stroke-width="1" fill="none" fill-rule="evenodd">
        <path d="M41.5,18.3462222 L41.5,25.3075556" id="Line-3-Copy" stroke="#4A4A4A" stroke-width="2" stroke-linecap="round" stroke-linejoin="round"></path>
        <path d="M41.9695223,27.1108516 C36.9262966,23.9148533 32.5512176,22.6531933 28.8442853,23.3258716 C23.3333335,24.3259163 19.6776504,29.9877313 20.0224652,35.6962716 C20.820715,48.9116013 24.7607429,57.4851639 31.8425488,61.4169594 C34.0454825,62.4439715 35.5404706,62.9085076 36.3275129,62.8105675 C38.2112952,62.5761484 40.0867165,60.5703274 41.9695223,60.5703274 C43.54021,60.5703274 44.2287184,62.0735226 46.4597077,62.8105675 C47.9470339,63.3019308 49.5195484,62.8373947 51.177251,61.4169594 C59.2033145,54.7630119 63.4720383,46.1894493 63.9834223,35.6962716 C64.2477963,30.271536 61.346242,24.8684945 55.5538294,23.3258716 C51.8407553,22.3370137 47.3126529,23.5986737 41.9695223,27.1108516 Z" id="Path-6" stroke="#4A4A4A" stroke-width="2"></path>
        <path d="M60,16 C57.7810795,21.2173914 55.1651171,24.9270756 52.1521128,27.1290525 C49.4984504,29.0684136 46.4477462,29.5000674 43,28.4240141 C44.2424549,24.5533604 46.1714143,21.6623112 48.7868783,19.7508665 C51.838081,17.5209732 55.5757882,16.2706844 60,16 Z" id="Path-7" stroke="#4A4A4A" stroke-width="2" fill="#FAE24E" stroke-linejoin="round" transform="translate(51.500000, 22.500000) rotate(13.000000) translate(-51.500000, -22.500000) "></path>
        <path d="M26,34 C26.0398703,38.384916 26.4250725,41.8637315 27.1556065,44.4364465 C28.3526418,48.6520345 29.9674396,51.8398856 32,54" id="Path-8" stroke="#4A4A4A" stroke-width="2" stroke-linecap="round" stroke-linejoin="round"></path>
    </g>
</svg>