<?xml version="1.0" encoding="UTF-8"?>
<svg width="84px" height="84px" viewBox="0 0 84 84" version="1.1" xmlns="http://www.w3.org/2000/svg" xmlns:xlink="http://www.w3.org/1999/xlink">
    <!-- Generator: Sketch 55.2 (78181) - https://sketchapp.com -->
    <title>heal</title>
    <desc>Created with Sketch.</desc>
    <g id="heal" stroke="none" stroke-width="1" fill="none" fill-rule="evenodd">
        <circle id="Oval-Copy" stroke="#4A4A4A" stroke-width="2" cx="40" cy="25" r="5"></circle>
        <path d="M38.9634705,47.5919127 L47.0609841,45.9549215 C48.1352869,45.7377407 48.8346589,44.696357 48.6292423,43.6197429 L47.3884862,37.1167842 C47.1150662,31.5414893 44.8062367,29.2419626 40.4619977,30.2182039 C36.1177587,31.1944452 34.3649359,33.7438284 35.2035293,37.8663534 L36.5960567,45.9702733 C36.7831175,47.058888 37.8172569,47.7897419 38.9058716,47.6026811 C38.9251228,47.5993731 38.9443245,47.5957832 38.9634705,47.5919127 Z" id="Path-2" stroke="#4A4A4A" stroke-width="2"></path>
        <path d="M49.0494433,44 L55,53.4388579 L48.3935024,64.0473778 C47.774141,65.0419302 46.4658054,65.3460826 45.471253,64.7267211 C45.4227113,64.6964916 45.3754118,64.6643118 45.3294704,64.6302605 C44.2832274,63.8547962 44.0019139,62.4089739 44.6810735,61.2977982 L49.4845216,53.4388579 L43,46.4403941" id="Path-13" stroke="#4A4A4A" stroke-width="2" fill="#B9E4E8" stroke-linecap="round" stroke-linejoin="round"></path>
        <path d="M42.6651058,45.6383494 L43,56.0212562 L28.7683311,61.2040359 C27.804969,61.5548657 26.7396059,61.0583101 26.3887761,60.094948 C26.3413652,59.9647599 26.3086781,59.8296733 26.2913256,59.692212 C26.1212252,58.344731 26.912136,57.0605523 28.1920247,56.6061029 L37.1041519,53.4416786 L36.1036634,45" id="Path-13-Copy" stroke="#4A4A4A" stroke-width="2" fill="#B9E4E8" stroke-linecap="round" stroke-linejoin="round"></path>
        <path d="M46,30.9305448 L54.0483291,19.4938933 C54.6059363,18.7015351 55.7002995,18.5112319 56.4926577,19.0688391 C56.5119908,19.0824443 56.5310468,19.096439 56.5498143,19.1108145 C57.3660184,19.7360113 57.5580548,20.8867919 56.9890833,21.7431398 L48.1810079,35" id="Path-14" stroke="#4A4A4A" stroke-width="2" stroke-linecap="round" stroke-linejoin="round"></path>
        <path d="M36,32.2702529 L25.7809,22.3396619 C25.0894147,21.6676988 23.9841214,21.6835247 23.3121583,22.3750101 C23.2731641,22.4151372 23.2361215,22.4571157 23.2011587,22.5008003 C22.517988,23.354395 22.5882129,24.5857171 23.3640026,25.3561044 L34.0825405,36" id="Path-14-Copy" stroke="#4A4A4A" stroke-width="2" stroke-linecap="round" stroke-linejoin="round"></path>
    </g>
</svg>