<?xml version="1.0" encoding="UTF-8"?>
<svg width="55px" height="55px" viewBox="0 0 55 55" version="1.1" xmlns="http://www.w3.org/2000/svg" xmlns:xlink="http://www.w3.org/1999/xlink">
    <!-- Generator: Sketch 55.2 (78181) - https://sketchapp.com -->
    <title>Group 4</title>
    <desc>Created with Sketch.</desc>
    <g id="Interior-Pages" stroke="none" stroke-width="1" fill="none" fill-rule="evenodd">
        <g id="Contact---V4" transform="translate(-1024.000000, -1002.000000)">
            <g id="Group-4" transform="translate(1024.000000, 1002.000000)">
                <circle id="Combined-Shape-Copy-11" fill="#1B3C92" cx="27.5" cy="27.5" r="27.5"></circle>
                <g id="mail" transform="translate(13.000000, 19.000000)" fill="#FFFFFF" fill-rule="nonzero">
                    <path d="M1.58519877,1.929 C2.34430957,2.322 12.8598609,7.77 13.2518607,7.9725 C13.6438606,8.175 14.1509715,8.271 14.6611935,8.271 C15.1714155,8.271 15.6785264,8.175 16.0705263,7.9725 C16.4625261,7.77 26.9780774,2.322 27.7371881,1.929 C28.4978545,1.5345 29.2165209,0 27.8211881,0 L1.50275436,0 C0.107421591,0 0.826087967,1.5345 1.58519877,1.929 Z M28.0902992,5.2335 C27.2269661,5.667 16.5994149,11.007 16.0705263,11.274 C15.5416376,11.541 15.1714155,11.5725 14.6611935,11.5725 C14.1509715,11.5725 13.7807494,11.541 13.2518607,11.274 C12.7229721,11.007 2.15608743,5.6655 1.29275445,5.232 C0.686088024,4.926 0.692308968,5.2845 0.692308968,5.5605 C0.692308968,5.8365 0.692308968,16.5 0.692308968,16.5 C0.692308968,17.13 1.57275433,18 2.24786517,18 L27.136744,18 C27.8118548,18 28.692309,17.13 28.692309,16.5 C28.692309,16.5 28.692309,5.838 28.692309,5.562 C28.692309,5.286 28.6985211,4.9275 28.0902992,5.2335 Z" id="Shape"></path>
                </g>
            </g>
        </g>
    </g>
</svg>