<?xml version="1.0" encoding="UTF-8"?>
<svg width="25px" height="25px" viewBox="0 0 25 25" version="1.1" xmlns="http://www.w3.org/2000/svg" xmlns:xlink="http://www.w3.org/1999/xlink">
    <!-- Generator: Sketch 55.2 (78181) - https://sketchapp.com -->
    <title>clock</title>
    <desc>Created with Sketch.</desc>
    <g id="Interior-Pages" stroke="none" stroke-width="1" fill="none" fill-rule="evenodd">
        <g id="Storage-Experts" transform="translate(-953.000000, -593.000000)" fill="#1B3C92" fill-rule="nonzero">
            <g id="clock" transform="translate(953.000000, 593.000000)">
                <path d="M12.5,0 C5.59475806,0 0,5.59475806 0,12.5 C0,19.4052419 5.59475806,25 12.5,25 C19.4052419,25 25,19.4052419 25,12.5 C25,5.59475806 19.4052419,0 12.5,0 Z M12.5,22.5806452 C6.93044355,22.5806452 2.41935484,18.0695565 2.41935484,12.5 C2.41935484,6.93044355 6.93044355,2.41935484 12.5,2.41935484 C18.0695565,2.41935484 22.5806452,6.93044355 22.5806452,12.5 C22.5806452,18.0695565 18.0695565,22.5806452 12.5,22.5806452 Z M15.6149194,17.3185484 L11.3356855,14.2086694 C11.1794355,14.0927419 11.0887097,13.9112903 11.0887097,13.7197581 L11.0887097,5.44354839 C11.0887097,5.1108871 11.3608871,4.83870968 11.6935484,4.83870968 L13.3064516,4.83870968 C13.6391129,4.83870968 13.9112903,5.1108871 13.9112903,5.44354839 L13.9112903,12.5856855 L17.2782258,15.0352823 C17.5504032,15.2318548 17.6058468,15.609879 17.4092742,15.8820565 L16.4616935,17.1875 C16.265121,17.4546371 15.8870968,17.515121 15.6149194,17.3185484 Z" id="Shape"></path>
            </g>
        </g>
    </g>
</svg>