<?xml version="1.0" encoding="UTF-8"?>
<svg width="18px" height="19px" viewBox="0 0 18 19" version="1.1" xmlns="http://www.w3.org/2000/svg" xmlns:xlink="http://www.w3.org/1999/xlink">
    <!-- Generator: Sketch 55.2 (78181) - https://sketchapp.com -->
    <title>sync</title>
    <desc>Created with Sketch.</desc>
    <g id="Account" stroke="none" stroke-width="1" fill="none" fill-rule="evenodd">
        <g id="Account-Info---Enable-Auto-Pay" transform="translate(-459.000000, -164.000000)" fill="#FFFFFF" fill-rule="nonzero">
            <g id="sync" transform="translate(459.000000, 164.000000)">
                <path d="M15.4916016,0.941914046 L15.6322266,3.85179675 C13.9789904,1.9015137 11.5507372,0.778308407 8.99402344,0.78124999 C4.73660156,0.78124999 1.19214844,3.83703113 0.432070312,7.8764841 C0.409307029,7.99970156 0.442494798,8.12666183 0.52264466,8.22297751 C0.602794521,8.31929318 0.721611586,8.37499635 0.846914062,8.37499971 L2.57132812,8.37499971 C2.7670434,8.37478772 2.93691333,8.23999804 2.98160156,8.04945285 C3.55623461,5.66464203 5.48609913,3.8449012 7.90052365,3.41121878 C10.3149482,2.97753636 12.7574716,4.01190256 14.1261328,6.04765605 L10.5591797,5.87679668 C10.4438616,5.87131281 10.3313343,5.91332732 10.2478286,5.99304638 C10.1643229,6.07276544 10.1171353,6.18322333 10.1172656,6.29867166 L10.1172656,7.96542941 C10.1172656,8.19842453 10.3061455,8.3873044 10.5391406,8.3873044 L17.578125,8.3873044 C17.8111201,8.3873044 18,8.19842453 18,7.96542941 L18,0.921874985 C18,0.688879864 17.8111201,0.5 17.578125,0.5 L15.9127734,0.5 C15.7974472,0.5 15.6871739,0.547333804 15.6076087,0.630817478 C15.5280435,0.714301153 15.4861235,0.826717976 15.4916016,0.941914046 Z M8.99402344,15.6874994 C6.93390252,15.6892645 5.00864199,14.6633381 3.86121094,12.9523433 L7.44011719,13.1235542 C7.55543528,13.1290381 7.66796257,13.0870236 7.7514683,13.0073045 C7.83497402,12.9275855 7.88216157,12.8171276 7.88203125,12.7016792 L7.88203125,11.0352731 C7.88203125,10.8022779 7.69315138,10.6133981 7.46015625,10.6133981 L0.421875,10.6133981 C0.188879871,10.6133981 0,10.8022779 0,11.0352731 L0,18.0781244 C0,18.3111195 0.188879871,18.4999997 0.421875,18.4999997 L2.08652344,18.4999997 C2.20216412,18.500144 2.31279456,18.4528128 2.39254682,18.369073 C2.47229908,18.2853331 2.51418057,18.1725267 2.50839844,18.0570306 L2.3625,15.1541792 C4.01538722,17.1004136 6.44062198,18.2211669 8.99402344,18.2187494 C13.2517969,18.2187494 16.79625,15.1629682 17.5563281,11.1235152 C17.5790914,11.0002978 17.5459036,10.8733375 17.4657538,10.7770218 C17.3856039,10.6807062 17.2667869,10.625003 17.1414844,10.6249996 L15.4170703,10.6249996 C15.221355,10.6252116 15.0514851,10.7600013 15.0067969,10.9505465 C14.3384695,13.7295833 11.8522934,15.6882301 8.99402344,15.6874994 Z" id="Shape"></path>
            </g>
        </g>
    </g>
</svg>