<?xml version="1.0" encoding="UTF-8"?>
<svg width="31px" height="24px" viewBox="0 0 31 24" version="1.1" xmlns="http://www.w3.org/2000/svg" xmlns:xlink="http://www.w3.org/1999/xlink">
    <!-- Generator: Sketch 55.2 (78181) - https://sketchapp.com -->
    <title>credit-card</title>
    <desc>Created with Sketch.</desc>
    <g id="Account" stroke="none" stroke-width="1" fill="none" fill-rule="evenodd">
        <g id="Billing---With-History" transform="translate(-519.000000, -804.000000)" fill="#4A4A4A" fill-rule="nonzero">
            <g id="credit-card" transform="translate(519.000000, 804.000000)">
                <path d="M0,21.4285714 C0,22.8482143 1.15711806,24 2.58333333,24 L28.4166667,24 C29.8428819,24 31,22.8482143 31,21.4285714 L31,12 L0,12 L0,21.4285714 Z M10.3333333,17.7857143 C10.3333333,17.4321429 10.6239583,17.1428571 10.9791667,17.1428571 L18.2986111,17.1428571 C18.6538194,17.1428571 18.9444444,17.4321429 18.9444444,17.7857143 L18.9444444,19.9285714 C18.9444444,20.2821429 18.6538194,20.5714286 18.2986111,20.5714286 L10.9791667,20.5714286 C10.6239583,20.5714286 10.3333333,20.2821429 10.3333333,19.9285714 L10.3333333,17.7857143 Z M3.44444444,17.7857143 C3.44444444,17.4321429 3.73506944,17.1428571 4.09027778,17.1428571 L7.96527778,17.1428571 C8.32048611,17.1428571 8.61111111,17.4321429 8.61111111,17.7857143 L8.61111111,19.9285714 C8.61111111,20.2821429 8.32048611,20.5714286 7.96527778,20.5714286 L4.09027778,20.5714286 C3.73506944,20.5714286 3.44444444,20.2821429 3.44444444,19.9285714 L3.44444444,17.7857143 Z M31,2.57142857 L31,5.14285714 L0,5.14285714 L0,2.57142857 C0,1.15178571 1.15711806,0 2.58333333,0 L28.4166667,0 C29.8428819,0 31,1.15178571 31,2.57142857 Z" id="Shape"></path>
            </g>
        </g>
    </g>
</svg>