<?xml version="1.0" encoding="UTF-8"?>
<svg width="50px" height="50px" viewBox="0 0 50 50" version="1.1" xmlns="http://www.w3.org/2000/svg" xmlns:xlink="http://www.w3.org/1999/xlink">
    <!-- Generator: Sketch 55.2 (78181) - https://sketchapp.com -->
    <title>email</title>
    <desc>Created with Sketch.</desc>
    <g id="email" stroke="none" stroke-width="1" fill="none" fill-rule="evenodd">
        <g id="mail" transform="translate(0.000000, 10.000000)" fill="#1B3C92" fill-rule="nonzero">
            <path d="M2.89475504,3.32216667 C4.17500177,3.999 21.9095672,13.3816667 22.5706783,13.7304167 C23.2317893,14.0791667 24.0870361,14.2445 24.9475298,14.2445 C25.8080235,14.2445 26.6632703,14.0791667 27.3243814,13.7304167 C27.9854924,13.3816667 45.7200579,3.999 47.0003046,3.32216667 C48.2831748,2.64275 49.4952117,0 47.1419712,0 L2.75571184,0 C0.40247142,0 1.61450829,2.64275 2.89475504,3.32216667 Z M47.5958292,9.01325 C46.1398109,9.75983333 28.2163566,18.9565 27.3243814,19.4163333 C26.4324062,19.8761667 25.8080235,19.9304167 24.9475298,19.9304167 C24.0870361,19.9304167 23.4626535,19.8761667 22.5706783,19.4163333 C21.6787032,18.9565 3.85756355,9.75725 2.40154523,9.01066667 C1.37839722,8.48366667 1.38888889,9.10108333 1.38888889,9.57641667 C1.38888889,10.05175 1.38888889,28.4166667 1.38888889,28.4166667 C1.38888889,29.5016667 2.87376739,31 4.01234747,31 L45.9876505,31 C47.1262305,31 48.6111111,29.5016667 48.6111111,28.4166667 C48.6111111,28.4166667 48.6111111,10.0543333 48.6111111,9.579 C48.6111111,9.10366667 48.6216007,8.48625 47.5958292,9.01325 Z" id="Shape"></path>
        </g>
    </g>
</svg>