<?xml version="1.0" encoding="UTF-8"?>
<svg width="51px" height="50px" viewBox="0 0 51 50" version="1.1" xmlns="http://www.w3.org/2000/svg" xmlns:xlink="http://www.w3.org/1999/xlink">
    <!-- Generator: Sketch 55.2 (78181) - https://sketchapp.com -->
    <title>pinterest</title>
    <desc>Created with Sketch.</desc>
    <g id="pinterest" stroke="none" stroke-width="1" fill="none" fill-rule="evenodd" transform="translate(1.000000, 0.000000)">
        <g transform="translate(6.000000, 1.000000)" fill="#FFFFFF" id="Path">
            <path d="M15.6401024,31.7468067 C14.3649176,38.3549315 12.8075994,44.6904177 8.1944024,48 C6.77062412,38.0117333 10.2858803,30.5108133 11.9179808,22.5471758 C9.1354946,17.9171205 12.252559,8.59749021 18.122488,10.894278 C25.3448122,13.7190629 11.8674784,28.1093861 20.9146862,29.9074565 C30.361057,31.7832865 34.2176897,13.706583 28.3599006,7.82757432 C19.8968693,-0.660700392 3.72397168,7.63413535 5.712988,19.7871905 C6.19664529,22.7588547 9.30205529,23.6598099 6.9536952,27.760428 C1.53731628,26.5733943 -0.0797306808,22.3508568 0.128591585,16.7204869 C0.46365537,7.50597604 8.5051862,1.05385046 16.570997,0.161535221 C26.7715041,-0.967418756 36.3451019,3.86279547 37.6669043,13.3475449 C39.1557529,24.0529278 33.0634192,35.6477459 22.1553934,34.8135104 C19.1990625,34.5864716 17.9573841,33.1387993 15.6401024,31.7468067 Z"></path>
        </g>
    </g>
</svg>