<?xml version="1.0" encoding="UTF-8"?>
<svg width="26px" height="26px" viewBox="0 0 26 26" version="1.1" xmlns="http://www.w3.org/2000/svg" xmlns:xlink="http://www.w3.org/1999/xlink">
    <!-- Generator: Sketch 55.2 (78181) - https://sketchapp.com -->
    <title>sync</title>
    <desc>Created with Sketch.</desc>
    <g id="Account" stroke="none" stroke-width="1" fill="none" fill-rule="evenodd">
        <g id="Billing" transform="translate(-514.000000, -215.000000)" fill="#1B3C92" fill-rule="nonzero">
            <g id="sync" transform="translate(514.000000, 215.000000)">
                <path d="M22.3767578,0.638320289 L22.5798828,4.8414842 C20.191875,2.02440868 16.6843982,0.402001032 12.9913672,0.406249985 C6.84175781,0.406249985 1.72199219,4.82015607 0.624101563,10.6549215 C0.591221264,10.8329023 0.639159153,11.0162893 0.754931175,11.155412 C0.870703197,11.2945346 1.04232785,11.3749947 1.22332031,11.3749996 L3.71414063,11.3749996 C3.99684046,11.3746934 4.24220814,11.1799972 4.30675781,10.9047652 C5.13678333,7.46003848 7.92436542,4.83152395 11.4118675,4.20509379 C14.8993696,3.57866363 18.4274589,5.07274814 20.4044141,8.01328096 L15.2521484,7.76648409 C15.0855779,7.75856294 14.9230384,7.81925057 14.8024191,7.93440032 C14.6817997,8.04955008 14.6136399,8.20910037 14.6138281,8.37585907 L14.6138281,10.783398 C14.6138281,11.1199465 14.8866546,11.392773 15.2232031,11.392773 L25.390625,11.392773 C25.7271735,11.392773 26,11.1199465 26,10.783398 L26,0.609374978 C26,0.272826471 25.7271735,0 25.390625,0 L22.9851172,0 C22.8185348,0 22.6592512,0.0683710497 22.5443237,0.18895858 C22.4293962,0.309546109 22.3688451,0.471925966 22.3767578,0.638320289 Z M12.9913672,21.9374992 C10.015637,21.9400487 7.2347051,20.458155 5.57730469,17.9867181 L10.7468359,18.2340228 C10.9134065,18.2419439 11.0759459,18.1812563 11.1965653,18.0661065 C11.3171847,17.9509568 11.3853445,17.7914065 11.3851562,17.6246478 L11.3851562,15.2176166 C11.3851562,14.8810681 11.1123298,14.6082417 10.7757812,14.6082417 L0.609375,14.6082417 C0.272826481,14.6082417 0,14.8810681 0,15.2176166 L0,25.3906241 C0,25.7271726 0.272826481,25.9999995 0.609375,25.9999995 L3.01386719,25.9999995 C3.18090373,26.000208 3.34070325,25.9318407 3.45590096,25.8108832 C3.57109867,25.6899256 3.63159415,25.5269831 3.62324219,25.3601553 L3.4125,21.1671477 C5.80000376,23.9783752 9.30312064,25.5972411 12.9913672,25.5937491 C19.1414844,25.5937491 24.26125,21.179843 25.3591406,15.3450776 C25.3920209,15.1670968 25.344083,14.9837097 25.228311,14.8445871 C25.112539,14.7054644 24.9409143,14.6250043 24.7599219,14.6249995 L22.2691016,14.6249995 C21.9864017,14.6253057 21.741034,14.8200019 21.6764844,15.0952338 C20.7111226,19.1093982 17.1199794,21.9385546 12.9913672,21.9374992 Z" id="Shape"></path>
            </g>
        </g>
    </g>
</svg>