<?xml version="1.0" encoding="UTF-8"?>
<svg width="12px" height="12px" viewBox="0 0 12 12" version="1.1" xmlns="http://www.w3.org/2000/svg" xmlns:xlink="http://www.w3.org/1999/xlink">
    <!-- Generator: Sketch 55.2 (78181) - https://sketchapp.com -->
    <title>filter</title>
    <desc>Created with Sketch.</desc>
    <g id="Renting-a-Unit" stroke="none" stroke-width="1" fill="none" fill-rule="evenodd">
        <g id="Available-Units" transform="translate(-1161.000000, -191.000000)" fill="#4A4A4A">
            <g id="filter" transform="translate(1160.000000, 191.000000)">
                <path d="M8.50008265,6.00041661 L8.50008265,11.2541147 C8.5300843,11.4541286 8.45508017,11.6674767 8.28257066,11.8074865 C7.99005455,12.0675045 7.51752851,12.0675045 7.2250124,11.8074865 L5.71742934,10.4673934 C5.54491983,10.3140494 5.4699157,10.1073684 5.49991735,9.91402166 L5.49991735,6.00041661 L5.47741611,6.00041661 L1.15717809,1.08007499 C0.902164045,0.793388418 0.96216735,0.373359256 1.28468512,0.14667685 C1.42719297,0.0533370365 1.58470165,2.54019028e-13 1.74971074,2.54019028e-13 L1.74971074,2.54019028e-13 L12.2502893,2.54019028e-13 L12.2502893,2.54019028e-13 C12.4152984,2.54019028e-13 12.572807,0.0533370365 12.7153149,0.14667685 C13.0378326,0.373359256 13.097836,0.793388418 12.8428219,1.08007499 L8.52258389,6.00041661 L8.50008265,6.00041661 Z" id="Path"></path>
            </g>
        </g>
    </g>
</svg>