<?xml version="1.0" encoding="UTF-8"?>
<svg width="26px" height="26px" viewBox="0 0 26 26" version="1.1" xmlns="http://www.w3.org/2000/svg" xmlns:xlink="http://www.w3.org/1999/xlink">
    <!-- Generator: Sketch 55.2 (78181) - https://sketchapp.com -->
    <title>search copy 3</title>
    <desc>Created with Sketch.</desc>
    <g id="Finding-a-Unit" stroke="none" stroke-width="1" fill="none" fill-rule="evenodd">
        <g id="Home---New-V4" transform="translate(-387.000000, -414.000000)" fill="#4A4A4A" fill-rule="nonzero">
            <g id="search-copy-3" transform="translate(387.000000, 414.000000)">
                <path d="M25.6464071,22.4786642 L20.5831462,17.4162679 C20.3546138,17.1877746 20.0448255,17.0608339 19.7198018,17.0608339 L18.8920068,17.0608339 C20.2936719,15.2684308 21.1265453,13.0139635 21.1265453,10.5614686 C21.1265453,4.72727273 16.3984651,0 10.5632726,0 C4.72808021,0 0,4.72727273 0,10.5614686 C0,16.3956645 4.72808021,21.1229372 10.5632726,21.1229372 C13.0161864,21.1229372 15.2710389,20.290206 17.0637481,18.8887804 L17.0637481,19.7164339 C17.0637481,20.0414022 17.1907105,20.3511376 17.4192429,20.5796309 L22.4825038,25.6420271 C22.9598825,26.1193243 23.731814,26.1193243 24.2041141,25.6420271 L25.6413286,24.2050581 C26.1187073,23.727761 26.1187073,22.9559613 25.6464071,22.4786642 Z M10.5632726,17.0608339 C6.97277564,17.0608339 4.06279717,14.15643 4.06279717,10.5614686 C4.06279717,6.97158481 6.96769715,4.06210331 10.5632726,4.06210331 C14.1537696,4.06210331 17.0637481,6.96650718 17.0637481,10.5614686 C17.0637481,14.1513524 14.1588481,17.0608339 10.5632726,17.0608339 Z" id="Shape"></path>
            </g>
        </g>
    </g>
</svg>