<?xml version="1.0" encoding="UTF-8"?>
<svg width="56px" height="121px" viewBox="0 0 56 121" version="1.1" xmlns="http://www.w3.org/2000/svg" xmlns:xlink="http://www.w3.org/1999/xlink">
    <!-- Generator: Sketch 55.2 (78181) - https://sketchapp.com -->
    <title>stars</title>
    <desc>Created with Sketch.</desc>
    <g id="stars" stroke="none" stroke-width="1" fill="none" fill-rule="evenodd">
        <polygon id="Star-1" stroke="#F1D615" stroke-width="0.9" points="5.50000001 8.46261646 2.71884705 10 3.24999999 6.74376943 1 4.4376941 4.10942352 3.96261646 5.50000001 1 6.89057644 3.96261646 10 4.4376941 7.75 6.74376943 8.28115293 10"></polygon>
        <polygon id="Star-1" stroke="#F1D615" stroke-width="0.9" points="17.5 8.46261646 14.718847 10 15.25 6.74376943 13 4.4376941 16.1094235 3.96261646 17.5 1 18.8905765 3.96261646 22 4.4376941 19.75 6.74376943 20.2811529 10"></polygon>
        <polygon id="Star-1" stroke="#F1D615" stroke-width="0.9" points="39.5 8.46261646 36.7188471 10 37.25 6.74376943 35 4.4376941 38.1094235 3.96261646 39.5 1 40.8905765 3.96261646 44 4.4376941 41.75 6.74376943 42.2811529 10"></polygon>
        <polygon id="Star-1" stroke="#F1D615" stroke-width="0.9" points="28.5 8.46261646 25.718847 10 26.25 6.74376943 24 4.4376941 27.1094235 3.96261646 28.5 1 29.8905765 3.96261646 33 4.4376941 30.75 6.74376943 31.2811529 10"></polygon>
        <polygon id="Star-1" stroke="#F1D615" stroke-width="0.9" points="50.5000002 8.46261646 47.718847 10 48.25 6.74376943 46 4.4376941 49.1094233 3.96261646 50.5000002 1 51.8905765 3.96261646 55 4.4376941 52.7500001 6.74376943 53.2811529 10"></polygon>
        <polygon id="Star-1" stroke="#F1D615" stroke-width="0.9" fill="#F1D615" points="5.50000001 74.4626165 2.71884705 76 3.24999999 72.7437694 1 70.4376941 4.10942352 69.9626165 5.50000001 67 6.89057644 69.9626165 10 70.4376941 7.75 72.7437694 8.28115293 76"></polygon>
        <polygon id="Star-1" stroke="#F1D615" stroke-width="0.9" fill="#F1D615" points="17.5 74.4626165 14.718847 76 15.25 72.7437694 13 70.4376941 16.1094235 69.9626165 17.5 67 18.8905765 69.9626165 22 70.4376941 19.75 72.7437694 20.2811529 76"></polygon>
        <polygon id="Star-1" stroke="#F1D615" stroke-width="0.9" points="39.5 74.4626165 36.7188471 76 37.25 72.7437694 35 70.4376941 38.1094235 69.9626165 39.5 67 40.8905765 69.9626165 44 70.4376941 41.75 72.7437694 42.2811529 76"></polygon>
        <polygon id="Star-1" stroke="#F1D615" stroke-width="0.9" fill="#F1D615" points="28.5 74.4626165 25.718847 76 26.25 72.7437694 24 70.4376941 27.1094235 69.9626165 28.5 67 29.8905765 69.9626165 33 70.4376941 30.75 72.7437694 31.2811529 76"></polygon>
        <polygon id="Star-1" stroke="#F1D615" stroke-width="0.9" points="50.5000002 74.4626165 47.718847 76 48.25 72.7437694 46 70.4376941 49.1094233 69.9626165 50.5000002 67 51.8905765 69.9626165 55 70.4376941 52.7500001 72.7437694 53.2811529 76"></polygon>
        <polygon id="Star-1" stroke="#F1D615" stroke-width="0.9" fill="#F1D615" points="5.50000001 41.4626165 2.71884705 43 3.24999999 39.7437694 1 37.4376941 4.10942352 36.9626165 5.50000001 34 6.89057644 36.9626165 10 37.4376941 7.75 39.7437694 8.28115293 43"></polygon>
        <polygon id="Star-1" stroke="#F1D615" stroke-width="0.9" points="17.5 41.4626165 14.718847 43 15.25 39.7437694 13 37.4376941 16.1094235 36.9626165 17.5 34 18.8905765 36.9626165 22 37.4376941 19.75 39.7437694 20.2811529 43"></polygon>
        <polygon id="Star-1" stroke="#F1D615" stroke-width="0.9" points="39.5 41.4626165 36.7188471 43 37.25 39.7437694 35 37.4376941 38.1094235 36.9626165 39.5 34 40.8905765 36.9626165 44 37.4376941 41.75 39.7437694 42.2811529 43"></polygon>
        <polygon id="Star-1" stroke="#F1D615" stroke-width="0.9" points="28.5 41.4626165 25.718847 43 26.25 39.7437694 24 37.4376941 27.1094235 36.9626165 28.5 34 29.8905765 36.9626165 33 37.4376941 30.75 39.7437694 31.2811529 43"></polygon>
        <polygon id="Star-1" stroke="#F1D615" stroke-width="0.9" points="50.5000002 41.4626165 47.718847 43 48.25 39.7437694 46 37.4376941 49.1094233 36.9626165 50.5000002 34 51.8905765 36.9626165 55 37.4376941 52.7500001 39.7437694 53.2811529 43"></polygon>
        <polygon id="Star-1" stroke="#F1D615" stroke-width="0.9" fill="#F1D615" points="5.50000001 107.462616 2.71884705 109 3.24999999 105.743769 1 103.437694 4.10942352 102.962616 5.50000001 100 6.89057644 102.962616 10 103.437694 7.75 105.743769 8.28115293 109"></polygon>
        <polygon id="Star-1" stroke="#F1D615" stroke-width="0.9" fill="#F1D615" points="17.5 107.462616 14.718847 109 15.25 105.743769 13 103.437694 16.1094235 102.962616 17.5 100 18.8905765 102.962616 22 103.437694 19.75 105.743769 20.2811529 109"></polygon>
        <polygon id="Star-1" stroke="#F1D615" stroke-width="0.9" fill="#F1D615" points="39.5 107.462616 36.7188471 109 37.25 105.743769 35 103.437694 38.1094235 102.962616 39.5 100 40.8905765 102.962616 44 103.437694 41.75 105.743769 42.2811529 109"></polygon>
        <polygon id="Star-1" stroke="#F1D615" stroke-width="0.9" fill="#F1D615" points="28.5 107.462616 25.718847 109 26.25 105.743769 24 103.437694 27.1094235 102.962616 28.5 100 29.8905765 102.962616 33 103.437694 30.75 105.743769 31.2811529 109"></polygon>
        <polygon id="Star-1" stroke="#F1D615" stroke-width="0.9" points="50.5000002 107.462616 47.718847 109 48.25 105.743769 46 103.437694 49.1094233 102.962616 50.5000002 100 51.8905765 102.962616 55 103.437694 52.7500001 105.743769 53.2811529 109"></polygon>
        <polygon id="Star-1" stroke="#F1D615" stroke-width="0.9" points="5.50000001 19.4626165 2.71884705 21 3.24999999 17.7437694 1 15.4376941 4.10942352 14.9626165 5.50000001 12 6.89057644 14.9626165 10 15.4376941 7.75 17.7437694 8.28115293 21"></polygon>
        <polygon id="Star-1" stroke="#F1D615" stroke-width="0.9" points="17.5 19.4626165 14.718847 21 15.25 17.7437694 13 15.4376941 16.1094235 14.9626165 17.5 12 18.8905765 14.9626165 22 15.4376941 19.75 17.7437694 20.2811529 21"></polygon>
        <polygon id="Star-1" stroke="#F1D615" stroke-width="0.9" points="39.5 19.4626165 36.7188471 21 37.25 17.7437694 35 15.4376941 38.1094235 14.9626165 39.5 12 40.8905765 14.9626165 44 15.4376941 41.75 17.7437694 42.2811529 21"></polygon>
        <polygon id="Star-1" stroke="#F1D615" stroke-width="0.9" points="28.5 19.4626165 25.718847 21 26.25 17.7437694 24 15.4376941 27.1094235 14.9626165 28.5 12 29.8905765 14.9626165 33 15.4376941 30.75 17.7437694 31.2811529 21"></polygon>
        <polygon id="Star-1" stroke="#F1D615" stroke-width="0.9" points="50.5000002 19.4626165 47.718847 21 48.25 17.7437694 46 15.4376941 49.1094233 14.9626165 50.5000002 12 51.8905765 14.9626165 55 15.4376941 52.7500001 17.7437694 53.2811529 21"></polygon>
        <polygon id="Star-1" stroke="#F1D615" stroke-width="0.9" fill="#F1D615" points="5.50000001 85.4626165 2.71884705 87 3.24999999 83.7437694 1 81.4376941 4.10942352 80.9626165 5.50000001 78 6.89057644 80.9626165 10 81.4376941 7.75 83.7437694 8.28115293 87"></polygon>
        <polygon id="Star-1" stroke="#F1D615" stroke-width="0.9" fill="#F1D615" points="17.5 85.4626165 14.718847 87 15.25 83.7437694 13 81.4376941 16.1094235 80.9626165 17.5 78 18.8905765 80.9626165 22 81.4376941 19.75 83.7437694 20.2811529 87"></polygon>
        <polygon id="Star-1" stroke="#F1D615" stroke-width="0.9" points="39.5 85.4626165 36.7188471 87 37.25 83.7437694 35 81.4376941 38.1094235 80.9626165 39.5 78 40.8905765 80.9626165 44 81.4376941 41.75 83.7437694 42.2811529 87"></polygon>
        <polygon id="Star-1" stroke="#F1D615" stroke-width="0.9" fill="#F1D615" points="28.5 85.4626165 25.718847 87 26.25 83.7437694 24 81.4376941 27.1094235 80.9626165 28.5 78 29.8905765 80.9626165 33 81.4376941 30.75 83.7437694 31.2811529 87"></polygon>
        <polygon id="Star-1" stroke="#F1D615" stroke-width="0.9" points="50.5000002 85.4626165 47.718847 87 48.25 83.7437694 46 81.4376941 49.1094233 80.9626165 50.5000002 78 51.8905765 80.9626165 55 81.4376941 52.7500001 83.7437694 53.2811529 87"></polygon>
        <polygon id="Star-1" stroke="#F1D615" stroke-width="0.9" fill="#F1D615" points="5.50000001 52.4626165 2.71884705 54 3.24999999 50.7437694 1 48.4376941 4.10942352 47.9626165 5.50000001 45 6.89057644 47.9626165 10 48.4376941 7.75 50.7437694 8.28115293 54"></polygon>
        <polygon id="Star-1" stroke="#F1D615" stroke-width="0.9" fill="#F1D615" points="17.5 52.4626165 14.718847 54 15.25 50.7437694 13 48.4376941 16.1094235 47.9626165 17.5 45 18.8905765 47.9626165 22 48.4376941 19.75 50.7437694 20.2811529 54"></polygon>
        <polygon id="Star-1" stroke="#F1D615" stroke-width="0.9" points="39.5 52.4626165 36.7188471 54 37.25 50.7437694 35 48.4376941 38.1094235 47.9626165 39.5 45 40.8905765 47.9626165 44 48.4376941 41.75 50.7437694 42.2811529 54"></polygon>
        <polygon id="Star-1" stroke="#F1D615" stroke-width="0.9" points="28.5 52.4626165 25.718847 54 26.25 50.7437694 24 48.4376941 27.1094235 47.9626165 28.5 45 29.8905765 47.9626165 33 48.4376941 30.75 50.7437694 31.2811529 54"></polygon>
        <polygon id="Star-1" stroke="#F1D615" stroke-width="0.9" points="50.5000002 52.4626165 47.718847 54 48.25 50.7437694 46 48.4376941 49.1094233 47.9626165 50.5000002 45 51.8905765 47.9626165 55 48.4376941 52.7500001 50.7437694 53.2811529 54"></polygon>
        <polygon id="Star-1" stroke="#F1D615" stroke-width="0.9" fill="#F1D615" points="5.50000001 30.4626165 2.71884705 32 3.24999999 28.7437694 1 26.4376941 4.10942352 25.9626165 5.50000001 23 6.89057644 25.9626165 10 26.4376941 7.75 28.7437694 8.28115293 32"></polygon>
        <polygon id="Star-1" stroke="#F1D615" stroke-width="0.9" points="17.5 30.4626165 14.718847 32 15.25 28.7437694 13 26.4376941 16.1094235 25.9626165 17.5 23 18.8905765 25.9626165 22 26.4376941 19.75 28.7437694 20.2811529 32"></polygon>
        <polygon id="Star-1" stroke="#F1D615" stroke-width="0.9" points="39.5 30.4626165 36.7188471 32 37.25 28.7437694 35 26.4376941 38.1094235 25.9626165 39.5 23 40.8905765 25.9626165 44 26.4376941 41.75 28.7437694 42.2811529 32"></polygon>
        <polygon id="Star-1" stroke="#F1D615" stroke-width="0.9" points="28.5 30.4626165 25.718847 32 26.25 28.7437694 24 26.4376941 27.1094235 25.9626165 28.5 23 29.8905765 25.9626165 33 26.4376941 30.75 28.7437694 31.2811529 32"></polygon>
        <polygon id="Star-1" stroke="#F1D615" stroke-width="0.9" points="50.5000002 30.4626165 47.718847 32 48.25 28.7437694 46 26.4376941 49.1094233 25.9626165 50.5000002 23 51.8905765 25.9626165 55 26.4376941 52.7500001 28.7437694 53.2811529 32"></polygon>
        <polygon id="Star-1" stroke="#F1D615" stroke-width="0.9" fill="#F1D615" points="5.50000001 96.4626165 2.71884705 98 3.24999999 94.7437694 1 92.4376941 4.10942352 91.9626165 5.50000001 89 6.89057644 91.9626165 10 92.4376941 7.75 94.7437694 8.28115293 98"></polygon>
        <polygon id="Star-1" stroke="#F1D615" stroke-width="0.9" fill="#F1D615" points="17.5 96.4626165 14.718847 98 15.25 94.7437694 13 92.4376941 16.1094235 91.9626165 17.5 89 18.8905765 91.9626165 22 92.4376941 19.75 94.7437694 20.2811529 98"></polygon>
        <polygon id="Star-1" stroke="#F1D615" stroke-width="0.9" fill="#F1D615" points="39.5 96.4626165 36.7188471 98 37.25 94.7437694 35 92.4376941 38.1094235 91.9626165 39.5 89 40.8905765 91.9626165 44 92.4376941 41.75 94.7437694 42.2811529 98"></polygon>
        <polygon id="Star-1" stroke="#F1D615" stroke-width="0.9" fill="#F1D615" points="28.5 96.4626165 25.718847 98 26.25 94.7437694 24 92.4376941 27.1094235 91.9626165 28.5 89 29.8905765 91.9626165 33 92.4376941 30.75 94.7437694 31.2811529 98"></polygon>
        <polygon id="Star-1" stroke="#F1D615" stroke-width="0.9" points="50.5000002 96.4626165 47.718847 98 48.25 94.7437694 46 92.4376941 49.1094233 91.9626165 50.5000002 89 51.8905765 91.9626165 55 92.4376941 52.7500001 94.7437694 53.2811529 98"></polygon>
        <polygon id="Star-1" stroke="#F1D615" stroke-width="0.9" fill="#F1D615" points="5.50000001 63.4626165 2.71884705 65 3.24999999 61.7437694 1 59.4376941 4.10942352 58.9626165 5.50000001 56 6.89057644 58.9626165 10 59.4376941 7.75 61.7437694 8.28115293 65"></polygon>
        <polygon id="Star-1" stroke="#F1D615" stroke-width="0.9" fill="#F1D615" points="17.5 63.4626165 14.718847 65 15.25 61.7437694 13 59.4376941 16.1094235 58.9626165 17.5 56 18.8905765 58.9626165 22 59.4376941 19.75 61.7437694 20.2811529 65"></polygon>
        <polygon id="Star-1" stroke="#F1D615" stroke-width="0.9" points="39.5 63.4626165 36.7188471 65 37.25 61.7437694 35 59.4376941 38.1094235 58.9626165 39.5 56 40.8905765 58.9626165 44 59.4376941 41.75 61.7437694 42.2811529 65"></polygon>
        <polygon id="Star-1" stroke="#F1D615" stroke-width="0.9" points="28.5 63.4626165 25.718847 65 26.25 61.7437694 24 59.4376941 27.1094235 58.9626165 28.5 56 29.8905765 58.9626165 33 59.4376941 30.75 61.7437694 31.2811529 65"></polygon>
        <polygon id="Star-1" stroke="#F1D615" stroke-width="0.9" points="50.5000002 63.4626165 47.718847 65 48.25 61.7437694 46 59.4376941 49.1094233 58.9626165 50.5000002 56 51.8905765 58.9626165 55 59.4376941 52.7500001 61.7437694 53.2811529 65"></polygon>
        <polygon id="Star-1" stroke="#F1D615" stroke-width="0.9" fill="#F1D615" points="5.50000001 118.462616 2.71884705 120 3.24999999 116.743769 1 114.437694 4.10942352 113.962616 5.50000001 111 6.89057644 113.962616 10 114.437694 7.75 116.743769 8.28115293 120"></polygon>
        <polygon id="Star-1" stroke="#F1D615" stroke-width="0.9" fill="#F1D615" points="17.5 118.462616 14.718847 120 15.25 116.743769 13 114.437694 16.1094235 113.962616 17.5 111 18.8905765 113.962616 22 114.437694 19.75 116.743769 20.2811529 120"></polygon>
        <polygon id="Star-1" stroke="#F1D615" stroke-width="0.9" fill="#F1D615" points="39.5 118.462616 36.7188471 120 37.25 116.743769 35 114.437694 38.1094235 113.962616 39.5 111 40.8905765 113.962616 44 114.437694 41.75 116.743769 42.2811529 120"></polygon>
        <polygon id="Star-1" stroke="#F1D615" stroke-width="0.9" fill="#F1D615" points="28.5 118.462616 25.718847 120 26.25 116.743769 24 114.437694 27.1094235 113.962616 28.5 111 29.8905765 113.962616 33 114.437694 30.75 116.743769 31.2811529 120"></polygon>
        <polygon id="Star-1" stroke="#F1D615" stroke-width="0.9" fill="#F1D615" points="50.5000002 118.462616 47.718847 120 48.25 116.743769 46 114.437694 49.1094233 113.962616 50.5000002 111 51.8905765 113.962616 55 114.437694 52.7500001 116.743769 53.2811529 120"></polygon>
        <path d="M5.5,19.4576026 L2.90983005,21 L3.5,17.7459572 L1,15.4414312 L4.45491502,14.9666728 C5.15163834,12.8955689 5.5,11.9066779 5.5,12 C5.5,16.0524654 5.5,18.5383329 5.5,19.4576026 Z" id="Star-1" fill="#F1D615"></path>
        <path d="M17.5,41.4636381 L14.9098301,43.0060356 L15.5,39.7519927 L13,37.4474668 L16.454915,36.9727083 C17.1516383,34.9016044 17.5,33.9127135 17.5,34.0060356 C17.5,38.058501 17.5,40.5443685 17.5,41.4636381 Z" id="Star-1-Copy" fill="#F1D615"></path>
        <path d="M28.5,63.4636381 L25.9098301,65.0060356 L26.5,61.7519927 L24,59.4474668 L27.454915,58.9727083 C28.1516383,56.9016044 28.5,55.9127135 28.5,56.0060356 C28.5,60.058501 28.5,62.5443685 28.5,63.4636381 Z" id="Star-1-Copy-2" fill="#F1D615"></path>
        <path d="M39.5,85.4636381 L36.9098301,87.0060356 L37.5,83.7519927 L35,81.4474668 L38.454915,80.9727083 C39.1516383,78.9016044 39.5,77.9127135 39.5,78.0060356 C39.5,82.058501 39.5,84.5443685 39.5,85.4636381 Z" id="Star-1-Copy-5" fill="#F1D615"></path>
        <path d="M50.5,107.463638 L47.9098301,109.006036 L48.5,105.751993 L46,103.447467 L49.454915,102.972708 C50.1516383,100.901604 50.5,99.9127135 50.5,100.006036 C50.5,104.058501 50.5,106.544368 50.5,107.463638 Z" id="Star-1-Copy-6" fill="#F1D615"></path>
    </g>
</svg>