<?xml version="1.0" encoding="UTF-8"?>
<svg width="118px" height="29px" viewBox="0 0 118 29" version="1.1" xmlns="http://www.w3.org/2000/svg" xmlns:xlink="http://www.w3.org/1999/xlink">
    <!-- Generator: Sketch 55.2 (78181) - https://sketchapp.com -->
    <title>Group 4</title>
    <desc>Created with Sketch.</desc>
    <g id="Complete" stroke="none" stroke-width="1" fill="none" fill-rule="evenodd">
        <g id="Group-4" transform="translate(0.840000, 0.200000)" fill="#FFFFFF" fill-rule="nonzero">
            <path d="M4.615,25.226 L2.221,25.226 L2.221,27.8 L0.853,27.8 L0.853,21.518 L2.221,21.518 L2.221,24.02 L4.615,24.02 L4.615,21.518 L5.983,21.518 L5.983,27.8 L4.615,27.8 L4.615,25.226 Z M9.369,27.8 L9.369,21.518 L13.644,21.518 L13.644,22.733 L10.737,22.733 L10.737,24.02 L13.23,24.02 L13.23,25.226 L10.737,25.226 L10.737,26.585 L13.644,26.585 L13.644,27.8 L9.369,27.8 Z M20.702,27.8 L20.252,26.306 L18.155,26.306 L17.705,27.8 L16.319,27.8 L18.389,21.518 L20.081,21.518 L22.124,27.8 L20.702,27.8 Z M19.217,22.76 L19.172,22.76 L18.479,25.145 L19.919,25.145 L19.217,22.76 Z M24.997,27.8 L24.997,21.518 L26.365,21.518 L26.365,26.585 L28.759,26.585 L28.759,27.8 L24.997,27.8 Z M33.72,22.733 L33.72,27.8 L32.352,27.8 L32.352,22.733 L30.651,22.733 L30.651,21.518 L35.421,21.518 L35.421,22.733 L33.72,22.733 Z M42.119,25.226 L39.725,25.226 L39.725,27.8 L38.357,27.8 L38.357,21.518 L39.725,21.518 L39.725,24.02 L42.119,24.02 L42.119,21.518 L43.487,21.518 L43.487,27.8 L42.119,27.8 L42.119,25.226 Z M49.411,27.908 C48.9849979,27.908 48.6010017,27.8405007 48.259,27.7055 C47.9169983,27.5704993 47.6260012,27.3695013 47.386,27.1025 C47.1459988,26.8354987 46.9600007,26.502502 46.828,26.1035 C46.6959993,25.704498 46.63,25.2380027 46.63,24.704 C46.63,24.1759974 46.6959993,23.7065021 46.828,23.2955 C46.9600007,22.8844979 47.1459988,22.5395014 47.386,22.2605 C47.6260012,21.9814986 47.9169983,21.7700007 48.259,21.626 C48.6010017,21.4819993 48.9849979,21.41 49.411,21.41 C49.9930029,21.41 50.4729981,21.5284988 50.851,21.7655 C51.2290019,22.0025012 51.5319989,22.3759974 51.76,22.886 L50.581,23.498 C50.4969996,23.2339987 50.3665009,23.0225008 50.1895,22.8635 C50.0124991,22.7044992 49.7530017,22.625 49.411,22.625 C49.008998,22.625 48.6865012,22.7554987 48.4435,23.0165 C48.2004988,23.2775013 48.079,23.6569975 48.079,24.155 L48.079,25.163 C48.079,25.6610025 48.2004988,26.0404987 48.4435,26.3015 C48.6865012,26.5625013 49.008998,26.693 49.411,26.693 C49.7470017,26.693 50.015499,26.6015009 50.2165,26.4185 C50.417501,26.2354991 50.5659995,26.0150013 50.662,25.757 L51.778,26.405 C51.5439988,26.8850024 51.2365019,27.2554987 50.8555,27.5165 C50.4744981,27.7775013 49.9930029,27.908 49.411,27.908 Z M58.53,27.8 L58.08,26.306 L55.983,26.306 L55.533,27.8 L54.147,27.8 L56.217,21.518 L57.909,21.518 L59.952,27.8 L58.53,27.8 Z M57.045,22.76 L57,22.76 L56.307,25.145 L57.747,25.145 L57.045,22.76 Z M64.193,27.8 L62.825,27.8 L62.825,21.518 L65.804,21.518 C66.0920014,21.518 66.3529988,21.5659995 66.587,21.662 C66.8210012,21.7580005 67.0204992,21.8944991 67.1855,22.0715 C67.3505008,22.2485009 67.4779996,22.4599988 67.568,22.706 C67.6580005,22.9520012 67.703,23.2249985 67.703,23.525 C67.703,23.9510021 67.6085009,24.3229984 67.4195,24.641 C67.2304991,24.9590016 66.9440019,25.1899993 66.56,25.334 L67.793,27.8 L66.272,27.8 L65.174,25.496 L64.193,25.496 L64.193,27.8 Z M65.633,24.344 C65.837001,24.344 65.9974994,24.2915005 66.1145,24.1865 C66.2315006,24.0814995 66.29,23.927001 66.29,23.723 L66.29,23.327 C66.29,23.122999 66.2315006,22.9685005 66.1145,22.8635 C65.9974994,22.7584995 65.837001,22.706 65.633,22.706 L64.193,22.706 L64.193,24.344 L65.633,24.344 Z M70.891,27.8 L70.891,21.518 L75.166,21.518 L75.166,22.733 L72.259,22.733 L72.259,24.02 L74.752,24.02 L74.752,25.226 L72.259,25.226 L72.259,26.585 L75.166,26.585 L75.166,27.8 L70.891,27.8 Z" id="HEALTHCARE"></path>
            <path d="M4.94,15.04 C3.806661,15.04 2.840004,14.8233355 2.04,14.39 C1.239996,13.9566645 0.5600028,13.3600038 0,12.6 L1.24,11.56 C1.7333358,12.2133366 2.279997,12.7099983 2.88,13.05 C3.480003,13.3900017 4.1866626,13.56 5,13.56 C6,13.56 6.7633307,13.3200024 7.29,12.84 C7.8166693,12.3599976 8.08,11.720004 8.08,10.92 C8.08,10.25333 7.880002,9.7400018 7.48,9.38 C7.079998,9.0199982 6.4200046,8.7333344 5.5,8.52 L4.36,8.26 C3.0799936,7.9666652 2.1033367,7.5233363 1.43,6.93 C0.7566633,6.3366637 0.42,5.5000054 0.42,4.42 C0.42,3.8066636 0.5333322,3.2600024 0.76,2.78 C0.9866678,2.2999976 1.3033313,1.9000016 1.71,1.58 C2.1166687,1.2599984 2.6033305,1.0166675 3.17,0.85 C3.7366695,0.6833325 4.3599966,0.6 5.04,0.6 C6.0933386,0.6 6.9966629,0.7933314 7.75,1.18 C8.5033371,1.5666686 9.1399974,2.1333296 9.66,2.88 L8.4,3.8 C8.0133314,3.266664 7.5466694,2.8466682 7,2.54 C6.4533306,2.2333318 5.7733374,2.08 4.96,2.08 C4.0666622,2.08 3.3633359,2.2699981 2.85,2.65 C2.3366641,3.0300019 2.08,3.6 2.08,4.36 C2.08,5.02667 2.2966645,5.5299983 2.73,5.87 C3.1633355,6.2100017 3.8199956,6.479999 4.7,6.68 L5.84,6.94 C7.2133402,7.2466682 8.2066636,7.7133302 8.82,8.34 C9.4333364,8.9666698 9.74,9.7999948 9.74,10.84 C9.74,11.4800032 9.6300011,12.0599974 9.41,12.58 C9.1899989,13.1 8.8733354,13.5399982 8.46,13.9 C8.0466646,14.2600018 7.5433363,14.539999 6.95,14.74 C6.3566637,14.940001 5.6866704,15.04 4.94,15.04 Z M16.36,15.04 C15.6533298,15.04 15.0166695,14.9133346 14.45,14.66 C13.8833305,14.4066654 13.3966687,14.0433357 12.99,13.57 C12.5833313,13.0966643 12.2700011,12.5300033 12.05,11.87 C11.8299989,11.2099967 11.72,10.4666708 11.72,9.64 C11.72,8.8266626 11.8299989,8.08667 12.05,7.42 C12.2700011,6.75333 12.5833313,6.1833357 12.99,5.71 C13.3966687,5.2366643 13.8833305,4.8733346 14.45,4.62 C15.0166695,4.3666654 15.6533298,4.24 16.36,4.24 C17.0533368,4.24 17.6733306,4.3666654 18.22,4.62 C18.7666694,4.8733346 19.2333314,5.2233311 19.62,5.67 C20.0066686,6.1166689 20.3033323,6.6466636 20.51,7.26 C20.7166677,7.8733364 20.82,8.546663 20.82,9.28 L20.82,10.04 L13.4,10.04 L13.4,10.52 C13.4,10.9600022 13.4699993,11.3699981 13.61,11.75 C13.7500007,12.1300019 13.9499987,12.4599986 14.21,12.74 C14.4700013,13.0200014 14.7899981,13.24 15.17,13.4 C15.5500019,13.5600008 15.9799976,13.64 16.46,13.64 C17.1133366,13.64 17.6833309,13.4866682 18.17,13.18 C18.6566691,12.8733318 19.033332,12.4333362 19.3,11.86 L20.44,12.68 C20.106665,13.3866702 19.5866702,13.9566645 18.88,14.39 C18.1733298,14.8233355 17.3333382,15.04 16.36,15.04 Z M16.36,5.58 C15.9199978,5.58 15.5200018,5.6566659 15.16,5.81 C14.7999982,5.9633341 14.4900013,6.1799986 14.23,6.46 C13.9699987,6.7400014 13.7666674,7.0699981 13.62,7.45 C13.4733326,7.8300019 13.4,8.2466644 13.4,8.7 L13.4,8.84 L19.1,8.84 L19.1,8.62 C19.1,7.6999954 18.8500025,6.9633361 18.35,6.41 C17.8499975,5.8566639 17.1866708,5.58 16.36,5.58 Z M27.3,15.04 C26.5799964,15.04 25.9333362,14.9133346 25.36,14.66 C24.7866638,14.4066654 24.3033353,14.046669 23.91,13.58 C23.5166647,13.113331 23.2166677,12.54667 23.01,11.88 C22.8033323,11.21333 22.7,10.4666708 22.7,9.64 C22.7,8.8133292 22.8033323,8.06667 23.01,7.4 C23.2166677,6.73333 23.5166647,6.166669 23.91,5.7 C24.3033353,5.233331 24.7866638,4.8733346 25.36,4.62 C25.9333362,4.3666654 26.5799964,4.24 27.3,4.24 C28.3266718,4.24 29.1499969,4.4633311 29.77,4.91 C30.3900031,5.3566689 30.8533318,5.9399964 31.16,6.66 L29.82,7.34 C29.6333324,6.806664 29.3266688,6.3933348 28.9,6.1 C28.4733312,5.8066652 27.9400032,5.66 27.3,5.66 C26.8199976,5.66 26.4000018,5.7366659 26.04,5.89 C25.6799982,6.0433341 25.3800012,6.2566653 25.14,6.53 C24.8999988,6.8033347 24.7200006,7.1299981 24.6,7.51 C24.4799994,7.8900019 24.42,8.3066644 24.42,8.76 L24.42,10.52 C24.42,11.4266712 24.6633309,12.1699971 25.15,12.75 C25.6366691,13.3300029 26.3533286,13.62 27.3,13.62 C28.5933398,13.62 29.5266638,13.020006 30.1,11.82 L31.26,12.6 C30.926665,13.3466704 30.4300033,13.9399978 29.77,14.38 C29.1099967,14.8200022 28.2866716,15.04 27.3,15.04 Z M37.3,15.04 C36.6066632,15.04 35.9733362,14.9133346 35.4,14.66 C34.8266638,14.4066654 34.3366687,14.0433357 33.93,13.57 C33.5233313,13.0966643 33.2066678,12.5300033 32.98,11.87 C32.7533322,11.2099967 32.64,10.4666708 32.64,9.64 C32.64,8.8266626 32.7533322,8.08667 32.98,7.42 C33.2066678,6.75333 33.5233313,6.1833357 33.93,5.71 C34.3366687,5.2366643 34.8266638,4.8733346 35.4,4.62 C35.9733362,4.3666654 36.6066632,4.24 37.3,4.24 C37.9933368,4.24 38.6233305,4.3666654 39.19,4.62 C39.7566695,4.8733346 40.2466646,5.2366643 40.66,5.71 C41.0733354,6.1833357 41.3933322,6.75333 41.62,7.42 C41.8466678,8.08667 41.96,8.8266626 41.96,9.64 C41.96,10.4666708 41.8466678,11.2099967 41.62,11.87 C41.3933322,12.5300033 41.0733354,13.0966643 40.66,13.57 C40.2466646,14.0433357 39.7566695,14.4066654 39.19,14.66 C38.6233305,14.9133346 37.9933368,15.04 37.3,15.04 Z M37.3,13.62 C38.166671,13.62 38.8733306,13.353336 39.42,12.82 C39.9666694,12.286664 40.24,11.4733388 40.24,10.38 L40.24,8.9 C40.24,7.8066612 39.9666694,6.993336 39.42,6.46 C38.8733306,5.926664 38.166671,5.66 37.3,5.66 C36.433329,5.66 35.7266694,5.926664 35.18,6.46 C34.6333306,6.993336 34.36,7.8066612 34.36,8.9 L34.36,10.38 C34.36,11.4733388 34.6333306,12.286664 35.18,12.82 C35.7266694,13.353336 36.433329,13.62 37.3,13.62 Z M44.6,14.8 L44.6,4.48 L46.2,4.48 L46.2,6.16 L46.28,6.16 C46.5333346,5.5733304 46.8899977,5.1066684 47.35,4.76 C47.8100023,4.4133316 48.4266628,4.24 49.2,4.24 C50.266672,4.24 51.1099969,4.5833299 51.73,5.27 C52.3500031,5.9566701 52.66,6.9266604 52.66,8.18 L52.66,14.8 L51.06,14.8 L51.06,8.46 C51.06,6.6066574 50.2800078,5.68 48.72,5.68 C48.3999984,5.68 48.0900015,5.7199996 47.79,5.8 C47.4899985,5.8800004 47.2200012,5.9999992 46.98,6.16 C46.7399988,6.3200008 46.5500007,6.5233321 46.41,6.77 C46.2699993,7.0166679 46.2,7.306665 46.2,7.64 L46.2,14.8 L44.6,14.8 Z M62.56,13.12 L62.48,13.12 C61.8533302,14.4000064 60.8466736,15.04 59.46,15.04 C58.8199968,15.04 58.2400026,14.9133346 57.72,14.66 C57.1999974,14.4066654 56.7566685,14.046669 56.39,13.58 C56.0233315,13.113331 55.7433343,12.54667 55.55,11.88 C55.3566657,11.21333 55.26,10.4666708 55.26,9.64 C55.26,8.8133292 55.3566657,8.06667 55.55,7.4 C55.7433343,6.73333 56.0233315,6.166669 56.39,5.7 C56.7566685,5.233331 57.1999974,4.8733346 57.72,4.62 C58.2400026,4.3666654 58.8199968,4.24 59.46,4.24 C60.1800036,4.24 60.7966641,4.3966651 61.31,4.71 C61.8233359,5.0233349 62.213332,5.5066634 62.48,6.16 L62.56,6.16 L62.56,0 L64.16,0 L64.16,14.8 L62.56,14.8 L62.56,13.12 Z M59.9,13.6 C60.2600018,13.6 60.6033317,13.5533338 60.93,13.46 C61.2566683,13.3666662 61.5399988,13.2300009 61.78,13.05 C62.0200012,12.8699991 62.2099993,12.6500013 62.35,12.39 C62.4900007,12.1299987 62.56,11.833335 62.56,11.5 L62.56,7.66 C62.56,7.3799986 62.4900007,7.1166679 62.35,6.87 C62.2099993,6.6233321 62.0200012,6.4133342 61.78,6.24 C61.5399988,6.0666658 61.2566683,5.9300005 60.93,5.83 C60.6033317,5.7299995 60.2600018,5.68 59.9,5.68 C58.9933288,5.68 58.2800026,5.9633305 57.76,6.53 C57.2399974,7.0966695 56.98,7.8399954 56.98,8.76 L56.98,10.52 C56.98,11.4400046 57.2399974,12.1833305 57.76,12.75 C58.2800026,13.3166695 58.9933288,13.6 59.9,13.6 Z M72.44,0.84 L78.18,0.84 C79.3400058,0.84 80.2499967,1.1666634 80.91,1.82 C81.5700033,2.4733366 81.9,3.3466612 81.9,4.44 C81.9,4.9600026 81.8266674,5.3999982 81.68,5.76 C81.5333326,6.1200018 81.3466678,6.4166655 81.12,6.65 C80.8933322,6.8833345 80.646668,7.0566661 80.38,7.17 C80.113332,7.2833339 79.8666678,7.3599998 79.64,7.4 L79.64,7.52 C79.8933346,7.5333334 80.1766651,7.5999994 80.49,7.72 C80.8033349,7.84 81.0999986,8.0299987 81.38,8.29 C81.6600014,8.5500013 81.8966657,8.8833313 82.09,9.29 C82.2833343,9.6966687 82.38,10.1866638 82.38,10.76 C82.38,11.3333362 82.2900009,11.8666642 82.11,12.36 C81.9299991,12.8533358 81.6800016,13.2799982 81.36,13.64 C81.0399984,14.0000018 80.6600022,14.2833323 80.22,14.49 C79.7799978,14.6966677 79.3000026,14.8 78.78,14.8 L72.44,14.8 L72.44,0.84 Z M74.12,13.32 L78.26,13.32 C78.9800036,13.32 79.5466646,13.1366685 79.96,12.77 C80.3733354,12.4033315 80.58,11.8666702 80.58,11.16 L80.58,10.48 C80.58,9.7733298 80.3733354,9.2366685 79.96,8.87 C79.5466646,8.5033315 78.9800036,8.32 78.26,8.32 L74.12,8.32 L74.12,13.32 Z M74.12,6.88 L77.98,6.88 C78.64667,6.88 79.1666648,6.713335 79.54,6.38 C79.9133352,6.046665 80.1,5.5666698 80.1,4.94 L80.1,4.26 C80.1,3.6333302 79.9133352,3.153335 79.54,2.82 C79.1666648,2.486665 78.64667,2.32 77.98,2.32 L74.12,2.32 L74.12,6.88 Z M85.34,14.8 L85.34,4.48 L86.94,4.48 L86.94,6.38 L87.04,6.38 C87.2266676,5.8866642 87.5599976,5.4466686 88.04,5.06 C88.5200024,4.6733314 89.1799958,4.48 90.02,4.48 L90.64,4.48 L90.64,6.08 L89.7,6.08 C88.833329,6.08 88.1566691,6.2433317 87.67,6.57 C87.1833309,6.8966683 86.94,7.3066642 86.94,7.8 L86.94,14.8 L85.34,14.8 Z M100.1,14.8 C99.499997,14.8 99.0700013,14.6400016 98.81,14.32 C98.5499987,13.9999984 98.386667,13.6000024 98.32,13.12 L98.22,13.12 C97.9933322,13.7600032 97.6200026,14.24 97.1,14.56 C96.5799974,14.8800016 95.9600036,15.04 95.24,15.04 C94.1466612,15.04 93.2966697,14.7600028 92.69,14.2 C92.0833303,13.6399972 91.78,12.8800048 91.78,11.92 C91.78,10.9466618 92.1366631,10.2000026 92.85,9.68 C93.5633369,9.1599974 94.6733258,8.9 96.18,8.9 L98.22,8.9 L98.22,7.88 C98.22,7.146663 98.020002,6.5866686 97.62,6.2 C97.219998,5.8133314 96.6066708,5.62 95.78,5.62 C95.1533302,5.62 94.6300021,5.7599986 94.21,6.04 C93.7899979,6.3200014 93.4400014,6.693331 93.16,7.16 L92.2,6.26 C92.4800014,5.6999972 92.9266636,5.2233353 93.54,4.83 C94.1533364,4.4366647 94.926662,4.24 95.86,4.24 C97.1133396,4.24 98.0866632,4.5466636 98.78,5.16 C99.4733368,5.7733364 99.82,6.6266612 99.82,7.72 L99.82,13.4 L101,13.4 L101,14.8 L100.1,14.8 Z M95.5,13.68 C95.900002,13.68 96.266665,13.6333338 96.6,13.54 C96.933335,13.4466662 97.2199988,13.3133342 97.46,13.14 C97.7000012,12.9666658 97.886666,12.7666678 98.02,12.54 C98.153334,12.3133322 98.22,12.066668 98.22,11.8 L98.22,10.1 L96.1,10.1 C95.1799954,10.1 94.5100021,10.233332 94.09,10.5 C93.6699979,10.766668 93.46,11.1533308 93.46,11.66 L93.46,12.08 C93.46,12.5866692 93.6433315,12.9799986 94.01,13.26 C94.3766685,13.5400014 94.8733302,13.68 95.5,13.68 Z M104.08,2.06 C103.733332,2.06 103.483334,1.9766675 103.33,1.81 C103.176666,1.6433325 103.1,1.426668 103.1,1.16 L103.1,0.9 C103.1,0.633332 103.176666,0.4166675 103.33,0.25 C103.483334,0.0833325 103.733332,0 104.08,0 C104.426668,0 104.676666,0.0833325 104.83,0.25 C104.983334,0.4166675 105.06,0.633332 105.06,0.9 L105.06,1.16 C105.06,1.426668 104.983334,1.6433325 104.83,1.81 C104.676666,1.9766675 104.426668,2.06 104.08,2.06 Z M103.28,4.48 L104.88,4.48 L104.88,14.8 L103.28,14.8 L103.28,4.48 Z M108.28,14.8 L108.28,4.48 L109.88,4.48 L109.88,6.16 L109.96,6.16 C110.213335,5.5733304 110.569998,5.1066684 111.03,4.76 C111.490002,4.4133316 112.106663,4.24 112.88,4.24 C113.946672,4.24 114.789997,4.5833299 115.41,5.27 C116.030003,5.9566701 116.34,6.9266604 116.34,8.18 L116.34,14.8 L114.74,14.8 L114.74,8.46 C114.74,6.6066574 113.960008,5.68 112.4,5.68 C112.079998,5.68 111.770002,5.7199996 111.47,5.8 C111.169999,5.8800004 110.900001,5.9999992 110.66,6.16 C110.419999,6.3200008 110.230001,6.5233321 110.09,6.77 C109.949999,7.0166679 109.88,7.306665 109.88,7.64 L109.88,14.8 L108.28,14.8 Z" id="SecondBrain"></path>
        </g>
    </g>
</svg>