<?xml version="1.0" encoding="UTF-8"?>
<svg width="50px" height="50px" viewBox="0 0 50 50" version="1.1" xmlns="http://www.w3.org/2000/svg" xmlns:xlink="http://www.w3.org/1999/xlink">
    <!-- Generator: Sketch 55.2 (78181) - https://sketchapp.com -->
    <title>twitter</title>
    <desc>Created with Sketch.</desc>
    <g id="twitter" stroke="none" stroke-width="1" fill="none" fill-rule="evenodd">
        <g id="twitter-copy" transform="translate(4.000000, 8.000000)" fill="#FFFFFF">
            <path d="M41.9,4 C40.3614723,4.7 38.7030593,5.16 36.9847036,5.38 C38.743021,4.32 40.1017208,2.64 40.741109,0.62 C39.082696,1.62 37.2444551,2.32 35.3063098,2.72 C33.7278203,1 31.5099426,0 28.9923518,0 C24.2968451,0 20.4605163,3.84 20.4605163,8.58 C20.4605163,9.26 20.5404398,9.92 20.6803059,10.54 C13.5671128,10.18 7.233174,6.76 3.01720841,1.58 C2.27791587,2.84 1.8583174,4.32 1.8583174,5.88 C1.8583174,8.86 3.35688337,11.5 5.67466539,13 C4.25602294,13 2.93728489,12.6 1.77839388,12 C1.77839388,12 1.77839388,12 1.77839388,12.06 C1.77839388,16.22 4.73556405,19.7 8.65181644,20.48 C7.93250478,20.68 7.17323136,20.78 6.39397706,20.78 C5.85449331,20.78 5.31500956,20.72 4.79550669,20.62 C5.87447419,24 9.01147228,26.52 12.7878585,26.58 C9.8706501,28.9 6.17418738,30.26 2.13804971,30.26 C1.45869981,30.26 0.779349904,30.22 0.1,30.14 C3.89636711,32.58 8.41204589,34 13.2474187,34 C28.9923518,34 37.6440727,20.92 37.6440727,9.58 C37.6440727,9.2 37.6440727,8.84 37.6240918,8.46 C39.3024857,7.26 40.741109,5.74 41.9,4 Z" id="Path"></path>
        </g>
    </g>
</svg>