<?xml version="1.0" encoding="UTF-8"?>
<svg width="17px" height="17px" viewBox="0 0 17 17" version="1.1" xmlns="http://www.w3.org/2000/svg" xmlns:xlink="http://www.w3.org/1999/xlink">
    <!-- Generator: Sketch 55.2 (78181) - https://sketchapp.com -->
    <title>key copy 3</title>
    <desc>Created with Sketch.</desc>
    <g id="Renting-a-Unit" stroke="none" stroke-width="1" fill="none" fill-rule="evenodd">
        <g id="Available-Units" transform="translate(-895.000000, -1166.000000)" fill="#1B3C92" fill-rule="nonzero">
            <g id="key-copy-3" transform="translate(895.000000, 1166.000000)">
                <path d="M17,5.8437832 C17,9.07119336 14.3836602,11.6875 11.15625,11.6875 C10.7837109,11.6875 10.4194727,11.6522383 10.066291,11.5855996 L9.26901758,12.4825488 C9.11779626,12.6526741 8.90103912,12.7500082 8.67341992,12.75 L7.4375,12.75 L7.4375,14.078125 C7.4375,14.5182324 7.08073242,14.875 6.640625,14.875 L5.3125,14.875 L5.3125,16.203125 C5.3125,16.6432324 4.95573242,17 4.515625,17 L0.796875,17 C0.356767578,17 0,16.6432324 0,16.203125 L0,13.6113223 C0,13.3999844 0.0839707031,13.1972793 0.233384766,13.047832 L5.6057168,7.6755 C5.41569531,7.09929297 5.3125,6.48360742 5.3125,5.84375 C5.3125,2.61633984 7.92880664,0 11.1562168,0 C14.3931563,0 17,2.60681055 17,5.8437832 Z M11.15625,4.25 C11.15625,5.13021484 11.8697852,5.84375 12.75,5.84375 C13.6302148,5.84375 14.34375,5.13021484 14.34375,4.25 C14.34375,3.36978516 13.6302148,2.65625 12.75,2.65625 C11.8697852,2.65625 11.15625,3.36978516 11.15625,4.25 Z" id="Shape"></path>
            </g>
        </g>
    </g>
</svg>