<?xml version="1.0" encoding="UTF-8"?>
<svg width="14px" height="17px" viewBox="0 0 14 17" version="1.1" xmlns="http://www.w3.org/2000/svg" xmlns:xlink="http://www.w3.org/1999/xlink">
    <!-- Generator: Sketch 55.2 (78181) - https://sketchapp.com -->
    <title>lock copy 3</title>
    <desc>Created with Sketch.</desc>
    <g id="Renting-a-Unit" stroke="none" stroke-width="1" fill="none" fill-rule="evenodd">
        <g id="Available-Units" transform="translate(-1127.000000, -1166.000000)" fill="#1B3C92" fill-rule="nonzero">
            <g id="lock-copy-3" transform="translate(1127.000000, 1166.000000)">
                <path d="M12.5,7.39393939 L11.75,7.39393939 L11.75,5.14393939 C11.75,2.52518939 9.61875,0.393939394 7,0.393939394 C4.38125,0.393939394 2.25,2.52518939 2.25,5.14393939 L2.25,7.39393939 L1.5,7.39393939 C0.671875,7.39393939 0,8.06581439 0,8.89393939 L0,14.8939394 C0,15.7220644 0.671875,16.3939394 1.5,16.3939394 L12.5,16.3939394 C13.328125,16.3939394 14,15.7220644 14,14.8939394 L14,8.89393939 C14,8.06581439 13.328125,7.39393939 12.5,7.39393939 Z M9.25,7.39393939 L4.75,7.39393939 L4.75,5.14393939 C4.75,3.90331439 5.759375,2.89393939 7,2.89393939 C8.240625,2.89393939 9.25,3.90331439 9.25,5.14393939 L9.25,7.39393939 Z" id="Shape"></path>
            </g>
        </g>
    </g>
</svg>