<?xml version="1.0" encoding="UTF-8"?>
<svg width="17px" height="18px" viewBox="0 0 17 18" version="1.1" xmlns="http://www.w3.org/2000/svg" xmlns:xlink="http://www.w3.org/1999/xlink">
    <!-- Generator: Sketch 55.2 (78181) - https://sketchapp.com -->
    <title>check-square copy</title>
    <desc>Created with Sketch.</desc>
    <g id="Renting-a-Unit" stroke="none" stroke-width="1" fill="none" fill-rule="evenodd">
        <g id="Available-Units" transform="translate(-665.000000, -1163.000000)" fill="#1B3C92" fill-rule="nonzero">
            <g id="check-square-copy" transform="translate(665.000000, 1163.000000)">
                <path d="M15.1785714,17.5 L1.82142857,17.5 C0.81546875,17.5 0,16.6845313 0,15.6785714 L0,2.32142857 C0,1.31546875 0.81546875,0.5 1.82142857,0.5 L15.1785714,0.5 C16.1845312,0.5 17,1.31546875 17,2.32142857 L17,15.6785714 C17,16.6845313 16.1845312,17.5 15.1785714,17.5 Z M7.41146875,13.7790112 L14.3936116,6.7968683 C14.6307009,6.55977902 14.6307009,6.17534375 14.3936116,5.93825446 L13.5349978,5.07964063 C13.2979085,4.84255134 12.9134732,4.84251339 12.676346,5.07964063 L6.98214286,10.7738058 L4.32365402,8.11531696 C4.08656473,7.87822768 3.70212946,7.87822768 3.46500223,8.11531696 L2.60638839,8.9739308 C2.36929911,9.21102009 2.36929911,9.59545536 2.60638839,9.83254464 L6.55281696,13.7789732 C6.7899442,14.0161384 7.17434152,14.0161384 7.41146875,13.7790112 L7.41146875,13.7790112 Z" id="Shape"></path>
            </g>
        </g>
    </g>
</svg>