<?xml version="1.0" encoding="UTF-8"?>
<svg width="17px" height="17px" viewBox="0 0 17 17" version="1.1" xmlns="http://www.w3.org/2000/svg" xmlns:xlink="http://www.w3.org/1999/xlink">
    <!-- Generator: Sketch 55.2 (78181) - https://sketchapp.com -->
    <title>Shape Copy 3</title>
    <desc>Created with Sketch.</desc>
    <g id="Renting-a-Unit" stroke="none" stroke-width="1" fill="none" fill-rule="evenodd">
        <g id="Available-Units" transform="translate(-894.000000, -1378.000000)" fill="#1B3C92" fill-rule="nonzero">
            <path d="M909.178571,1378 L895.821429,1378 C894.815848,1378 894,1378.81585 894,1379.82143 L894,1393.17857 C894,1394.18415 894.815848,1395 895.821429,1395 L909.178571,1395 C910.184152,1395 911,1394.18415 911,1393.17857 L911,1379.82143 C911,1378.81585 910.184152,1378 909.178571,1378 Z M903.107143,1388.92857 L901.285714,1388.92857 L901.285714,1390.75 C901.285714,1391.08393 901.0125,1391.35714 900.678571,1391.35714 L899.464286,1391.35714 C899.130357,1391.35714 898.857143,1391.08393 898.857143,1390.75 L898.857143,1382.25 C898.857143,1381.91607 899.130357,1381.64286 899.464286,1381.64286 L903.107143,1381.64286 C905.114509,1381.64286 906.75,1383.27835 906.75,1385.28571 C906.75,1387.29308 905.114509,1388.92857 903.107143,1388.92857 Z M903.107143,1384.07143 L901.285714,1384.07143 L901.285714,1386.5 L903.107143,1386.5 C903.775,1386.5 904.321429,1385.95357 904.321429,1385.28571 C904.321429,1384.61786 903.775,1384.07143 903.107143,1384.07143 Z" id="Shape-Copy-3"></path>
        </g>
    </g>
</svg>