<?xml version="1.0" encoding="UTF-8"?>
<svg width="17px" height="17px" viewBox="0 0 17 17" version="1.1" xmlns="http://www.w3.org/2000/svg" xmlns:xlink="http://www.w3.org/1999/xlink">
    <!-- Generator: Sketch 55.2 (78181) - https://sketchapp.com -->
    <title>tag copy 2</title>
    <desc>Created with Sketch.</desc>
    <g id="Renting-a-Unit" stroke="none" stroke-width="1" fill="none" fill-rule="evenodd">
        <g id="Available-Units" transform="translate(-1127.000000, -1379.000000)" fill="#1B3C92" fill-rule="nonzero">
            <g id="tag-copy-2" transform="translate(1127.000000, 1379.000000)">
                <path d="M0,8.37110547 L0,1.59375 C0,0.713535156 0.713535156,0 1.59375,0 L8.37110547,0 C8.7937934,0 9.19916833,0.167916124 9.49805273,0.466802734 L16.5331973,7.50194727 C17.1555898,8.12433984 17.1555898,9.13344922 16.5331973,9.7558418 L9.7558418,16.5331973 C9.13344922,17.1555898 8.12433984,17.1555898 7.50194727,16.5331973 L0.466802734,9.49805273 C0.167916124,9.19916833 0,8.7937934 0,8.37110547 Z M3.71875,2.125 C2.83853516,2.125 2.125,2.83853516 2.125,3.71875 C2.125,4.59896484 2.83853516,5.3125 3.71875,5.3125 C4.59896484,5.3125 5.3125,4.59896484 5.3125,3.71875 C5.3125,2.83853516 4.59896484,2.125 3.71875,2.125 Z" id="Shape"></path>
            </g>
        </g>
    </g>
</svg>