<?xml version="1.0" encoding="UTF-8"?>
<svg width="55px" height="55px" viewBox="0 0 55 55" version="1.1" xmlns="http://www.w3.org/2000/svg" xmlns:xlink="http://www.w3.org/1999/xlink">
    <!-- Generator: Sketch 55.2 (78181) - https://sketchapp.com -->
    <title>Group 3</title>
    <desc>Created with Sketch.</desc>
    <g id="Interior-Pages" stroke="none" stroke-width="1" fill="none" fill-rule="evenodd">
        <g id="Contact---V4" transform="translate(-1027.000000, -797.000000)">
            <g id="Group-3" transform="translate(1027.000000, 797.000000)">
                <circle id="Combined-Shape-Copy-10" fill="#1B3C92" cx="27.5" cy="27.5" r="27.5"></circle>
                <g id="clock" transform="translate(15.000000, 15.000000)" fill="#FFFFFF" fill-rule="nonzero">
                    <path d="M13,0 C5.81854839,0 0,5.81854839 0,13 C0,20.1814516 5.81854839,26 13,26 C20.1814516,26 26,20.1814516 26,13 C26,5.81854839 20.1814516,0 13,0 Z M13,23.483871 C7.20766129,23.483871 2.51612903,18.7923387 2.51612903,13 C2.51612903,7.20766129 7.20766129,2.51612903 13,2.51612903 C18.7923387,2.51612903 23.483871,7.20766129 23.483871,13 C23.483871,18.7923387 18.7923387,23.483871 13,23.483871 Z M16.2395161,18.0112903 L11.7891129,14.7770161 C11.6266129,14.6564516 11.5322581,14.4677419 11.5322581,14.2685484 L11.5322581,5.66129032 C11.5322581,5.31532258 11.8153226,5.03225806 12.1612903,5.03225806 L13.8387097,5.03225806 C14.1846774,5.03225806 14.4677419,5.31532258 14.4677419,5.66129032 L14.4677419,13.0891129 L17.9693548,15.6366935 C18.2524194,15.841129 18.3100806,16.2342742 18.1056452,16.5173387 L17.1201613,17.875 C16.9157258,18.1528226 16.5225806,18.2157258 16.2395161,18.0112903 Z" id="Shape"></path>
                </g>
            </g>
        </g>
    </g>
</svg>