<?xml version="1.0" encoding="UTF-8"?>
<svg width="55px" height="55px" viewBox="0 0 55 55" version="1.1" xmlns="http://www.w3.org/2000/svg" xmlns:xlink="http://www.w3.org/1999/xlink">
    <!-- Generator: Sketch 55.2 (78181) - https://sketchapp.com -->
    <title>Group</title>
    <desc>Created with Sketch.</desc>
    <g id="Interior-Pages" stroke="none" stroke-width="1" fill="none" fill-rule="evenodd">
        <g id="Contact---V4" transform="translate(-1027.000000, -610.000000)">
            <g id="Group" transform="translate(1027.000000, 610.000000)">
                <circle id="Combined-Shape-Copy-9" fill="#1B3C92" cx="27.5" cy="27.5" r="27.5"></circle>
                <path d="M33.9066667,31.9066667 C33.44,31.76 32.92,31.8666667 32.5466667,32.24 L29.6133333,35.1733333 C25.84,33.2533333 22.7466667,30.16 20.8266667,26.3866667 L23.76,23.4533333 C24.1333333,23.08 24.24,22.56 24.0933333,22.0933333 C23.6,20.6 23.3333333,19 23.3333333,17.3333333 C23.3333333,16.6 22.7333333,16 22,16 L17.3333333,16 C16.6,16 16,16.6 16,17.3333333 C16,29.8533333 26.1466667,40 38.6666667,40 C39.4,40 40,39.4 40,38.6666667 L40,34 C40,33.2666667 39.4,32.6666667 38.6666667,32.6666667 C37,32.6666667 35.4,32.4 33.9066667,31.9066667 Z" id="Shape" fill="#FFFFFF" fill-rule="nonzero"></path>
            </g>
        </g>
    </g>
</svg>