<?xml version="1.0" encoding="UTF-8"?>
<svg width="24px" height="25px" viewBox="0 0 24 25" version="1.1" xmlns="http://www.w3.org/2000/svg" xmlns:xlink="http://www.w3.org/1999/xlink">
    <!-- Generator: Sketch 55.2 (78181) - https://sketchapp.com -->
    <title>snowflake</title>
    <desc>Created with Sketch.</desc>
    <g id="Finding-a-Unit" stroke="none" stroke-width="1" fill="none" fill-rule="evenodd">
        <g id="Home---New-V4" transform="translate(-798.000000, -1645.000000)" fill="#1B3C92">
            <g id="snowflake" transform="translate(798.000000, 1645.000000)">
                <path d="M23.1045275,16.8554688 L21.3694054,15.9033203 L22.7041147,15.5615234 C23.1250615,15.4541016 23.3766029,15.0390625 23.2636659,14.6386719 L23.058326,13.9111328 C22.9453891,13.5107422 22.5090418,13.2714844 22.088095,13.3789063 L18.453579,14.3066406 L15.1732743,12.5 L18.4484455,10.6982422 L22.0829616,11.6259766 C22.5039083,11.7333984 22.9402556,11.4941406 23.0531925,11.09375 L23.2585324,10.3662109 C23.3714694,9.96582031 23.119928,9.55078125 22.6989812,9.44335938 L21.3642719,9.1015625 L23.099394,8.14941406 C23.4792728,7.93945313 23.6076102,7.48046875 23.3920033,7.11914063 L22.5963113,5.81054688 C22.3755709,5.44921875 21.8930222,5.32714844 21.5131434,5.53222656 L19.7780213,6.484375 L20.1373661,5.21484375 C20.250303,4.81445312 19.9987617,4.39941406 19.5778149,4.29199219 L18.8129238,4.09667969 C18.391977,3.98925781 17.9556298,4.22851562 17.8426928,4.62890625 L16.8673284,8.0859375 L13.6434921,9.85351562 L13.6434921,6.06933594 L16.4001801,3.44726563 C16.7184569,3.14453125 16.7184569,2.64648438 16.4001801,2.34375 L15.8200949,1.79199219 C15.5018181,1.48925781 14.9782014,1.48925781 14.6599246,1.79199219 L13.6434921,2.75390625 L13.6434921,0.78125 C13.6434921,0.3515625 13.2738803,0 12.8221326,0 L11.1794134,0 C10.7276657,0 10.3580539,0.3515625 10.3580539,0.78125 L10.3580539,2.75390625 L9.34675493,1.79199219 C9.0284781,1.48925781 8.50486138,1.48925781 8.18658455,1.79199219 L7.60136587,2.34375 C7.27795554,2.64648438 7.27795554,3.14453125 7.60136587,3.44726562 L10.3580539,6.06933594 L10.3580539,9.85351562 L7.13421762,8.0859375 L6.15885315,4.62890625 C6.04591621,4.22851563 5.60956895,3.98925781 5.18862217,4.09667969 L4.42373109,4.29199219 C4.00278431,4.39941406 3.75124295,4.81445313 3.86417989,5.21484375 L4.22352469,6.484375 L2.48840263,5.53222656 C2.10852384,5.32226563 1.6259751,5.44921875 1.40523471,5.81054688 L0.609542644,7.11425781 C0.388802264,7.47558594 0.522273191,7.93457031 0.902151986,8.14453125 L2.63727405,9.09667969 L1.30256477,9.43847656 C0.8764845,9.54589844 0.624943136,9.9609375 0.737880075,10.3662109 L0.943219964,11.09375 C1.0561569,11.4941406 1.49250417,11.7333984 1.91345094,11.6259766 L5.54796698,10.6982422 L8.82313821,12.5 L5.54796698,14.3017578 L1.91345094,13.3740234 C1.49250417,13.2666016 1.0561569,13.5058594 0.943219964,13.90625 L0.737880075,14.6337891 C0.624943136,15.0341797 0.8764845,15.4492187 1.29743127,15.5566406 L2.63214055,15.8984375 L0.897018489,16.8554687 C0.517139694,17.0654297 0.388802264,17.5244141 0.604409147,17.8857422 L1.40010122,19.1943359 C1.6208416,19.5556641 2.10339034,19.6777344 2.48326913,19.4726562 L4.2183912,18.5205078 L3.85904639,19.7900391 C3.74610945,20.1904297 3.99765082,20.6054687 4.41859759,20.7128906 L5.18348868,20.9082031 C5.60443545,21.015625 6.04078271,20.7763672 6.15371965,20.3759766 L7.12908413,16.9189453 L10.3529204,15.1513672 L10.3529204,18.9355469 L7.59623237,21.5576172 C7.27282205,21.8603516 7.27282205,22.3583984 7.59623237,22.6611328 L8.17631756,23.2128906 C8.49459439,23.515625 9.01821111,23.515625 9.33648793,23.2128906 L10.3477869,22.2509766 L10.3477869,24.21875 C10.3477869,24.6484375 10.7173987,25 11.1691464,25 L12.8118656,25 C13.2636133,25 13.6332251,24.6484375 13.6332251,24.21875 L13.6332251,22.2460938 L14.6445241,23.2080078 C14.9628009,23.5107422 15.4864176,23.5107422 15.8046944,23.2080078 L16.3847796,22.65625 C16.7030565,22.3535156 16.7030565,21.8554688 16.3847796,21.5527344 L13.6434921,18.9306641 L13.6434921,15.1464844 L16.8673284,16.9140625 L17.8426928,20.3710938 C17.9556298,20.7714844 18.391977,21.0107422 18.8129238,20.9033203 L19.5778149,20.7080078 C19.9987617,20.6005859 20.250303,20.1855469 20.1373661,19.7851562 L19.7780213,18.515625 L21.5131434,19.4677734 C21.8930222,19.6777344 22.3755709,19.5507812 22.5963113,19.1894531 L23.3920033,17.8808594 C23.6127437,17.5244141 23.4844063,17.0605469 23.1045275,16.8554688 Z" id="Path"></path>
            </g>
        </g>
    </g>
</svg>