<?xml version="1.0" encoding="UTF-8"?>
<svg width="42px" height="42px" viewBox="0 0 42 42" version="1.1" xmlns="http://www.w3.org/2000/svg" xmlns:xlink="http://www.w3.org/1999/xlink">
    <!-- Generator: Sketch 55.2 (78181) - https://sketchapp.com -->
    <title>search copy 2</title>
    <desc>Created with Sketch.</desc>
    <g id="Finding-a-Unit" stroke="none" stroke-width="1" fill="none" fill-rule="evenodd">
        <g id="Home---New-V4" transform="translate(-330.000000, -791.000000)" fill="#1B3C92" fill-rule="nonzero">
            <g id="search-copy-2" transform="translate(330.000000, 791.000000)">
                <path d="M41.4288115,36.3116883 L33.2496976,28.1339713 C32.88053,27.7648667 32.3801028,27.5598086 31.8550644,27.5598086 L30.5178572,27.5598086 C32.7820853,24.6643882 34.1274962,21.0225564 34.1274962,17.0608339 C34.1274962,7.63636364 26.4898282,0 17.0637481,0 C7.63766803,0 0,7.63636364 0,17.0608339 C0,26.4853042 7.63766803,34.1216678 17.0637481,34.1216678 C21.0261473,34.1216678 24.6686012,32.7764867 27.5645162,30.5126452 L27.5645162,31.8496241 C27.5645162,32.3745728 27.7696093,32.8749146 28.1387769,33.2440191 L36.3178908,41.4217362 C37.089041,42.1927546 38.3360072,42.1927546 39.0989536,41.4217362 L41.4206078,39.1004785 C42.191758,38.32946 42.191758,37.0827068 41.4288115,36.3116883 Z M16.8,27.3 C11.0003906,27.3 6.3,22.6078125 6.3,16.8 C6.3,11.0003906 10.9921875,6.3 16.8,6.3 C22.5996094,6.3 27.3,10.9921875 27.3,16.8 C27.3,22.5996094 22.6078125,27.3 16.8,27.3 Z" id="Shape"></path>
            </g>
        </g>
    </g>
</svg>