<?xml version="1.0" encoding="UTF-8"?>
<svg width="221px" height="152px" viewBox="0 0 221 152" version="1.1" xmlns="http://www.w3.org/2000/svg" xmlns:xlink="http://www.w3.org/1999/xlink">
    <!-- Generator: Sketch 55.2 (78181) - https://sketchapp.com -->
    <title>Group</title>
    <desc>Created with Sketch.</desc>
    <g id="Interior-Pages" stroke="none" stroke-width="1" fill="none" fill-rule="evenodd">
        <g id="Storage-Type---ATV-Storage" transform="translate(-300.000000, -955.000000)">
            <g id="Group" transform="translate(300.000000, 948.000000)">
                <path d="M72.4375,17.545 C75.9841844,17.545 78.5683252,18.180827 80.19,19.4525 C81.8116748,20.724173 82.6225,22.5033219 82.6225,24.79 C82.6225,26.2133405 82.2900033,27.4849944 81.625,28.605 C80.9599967,29.7250056 79.9625066,30.6058301 78.6325,31.2475 C77.3024933,31.8891699 75.6691763,32.21 73.7325,32.21 C71.9824912,32.21 70.3200079,31.9241695 68.745,31.3525 C67.1699921,30.7808305 65.9041714,30.0166715 64.9475,29.06 L66.1725,27.065 C66.9891707,27.9050042 68.0624933,28.5874974 69.3925,29.1125 C70.7225066,29.6375026 72.1574923,29.9 73.6975,29.9 C75.7275102,29.9 77.2966611,29.4450046 78.405,28.535 C79.5133389,27.6249955 80.0675,26.4116743 80.0675,24.895 C80.0675,23.2149916 79.4433396,21.9433376 78.195,21.08 C76.9466604,20.2166624 74.8408481,19.785 71.8775,19.785 L66.6625,19.785 L67.9225,7.5 L81.3275,7.5 L81.3275,9.74 L70.1275,9.74 L69.2875,17.545 L72.4375,17.545 Z M108.3475,32 L102.5025,24.3 L96.6225,32 L93.8225,32 L101.1025,22.55 L94.1725,13.59 L96.9725,13.59 L102.5025,20.8 L108.0325,13.59 L110.7625,13.59 L103.8325,22.55 L111.1825,32 L108.3475,32 Z M129.6275,7.5 L129.6275,32 L127.1075,32 L127.1075,9.74 L121.3325,9.74 L121.3325,7.5 L129.6275,7.5 Z M145.2375,32.21 C143.347491,32.21 141.661674,31.7083383 140.18,30.705 C138.698326,29.7016616 137.543337,28.2608427 136.715,26.3825 C135.886663,24.5041573 135.4725,22.293346 135.4725,19.75 C135.4725,17.2066539 135.886663,14.9958427 136.715,13.1175 C137.543337,11.2391573 138.698326,9.79833835 140.18,8.795 C141.661674,7.79166165 143.347491,7.29 145.2375,7.29 C147.127509,7.29 148.813326,7.79166165 150.295,8.795 C151.776674,9.79833835 152.937496,11.2391573 153.7775,13.1175 C154.617504,14.9958427 155.0375,17.2066539 155.0375,19.75 C155.0375,22.293346 154.617504,24.5041573 153.7775,26.3825 C152.937496,28.2608427 151.776674,29.7016616 150.295,30.705 C148.813326,31.7083383 147.127509,32.21 145.2375,32.21 Z M145.2375,29.9 C146.66084,29.9 147.914995,29.5033373 149,28.71 C150.085005,27.9166627 150.93083,26.7616742 151.5375,25.245 C152.14417,23.7283257 152.4475,21.8966774 152.4475,19.75 C152.4475,17.6033226 152.14417,15.7716743 151.5375,14.255 C150.93083,12.7383257 150.085005,11.5833373 149,10.79 C147.914995,9.9966627 146.66084,9.6 145.2375,9.6 C143.81416,9.6 142.560005,9.9966627 141.475,10.79 C140.389995,11.5833373 139.54417,12.7383257 138.9375,14.255 C138.33083,15.7716743 138.0275,17.6033226 138.0275,19.75 C138.0275,21.8966774 138.33083,23.7283257 138.9375,25.245 C139.54417,26.7616742 140.389995,27.9166627 141.475,28.71 C142.560005,29.5033373 143.81416,29.9 145.2375,29.9 Z" id="5x10" fill="#FFFFFF" fill-rule="nonzero"></path>
                <rect id="Rectangle-Copy-95" stroke="#FFFFFF" stroke-width="0.5" x="0.25" y="48.25" width="22.5" height="22.5"></rect>
                <rect id="Rectangle-Copy-96" stroke="#FFFFFF" stroke-width="0.5" x="110.25" y="48.25" width="22.5" height="22.5"></rect>
                <rect id="Rectangle-Copy-97" stroke="#FFFFFF" stroke-width="0.5" x="0.25" y="114.25" width="22.5" height="22.5"></rect>
                <rect id="Rectangle-Copy-98" stroke="#FFFFFF" stroke-width="0.5" x="110.25" y="114.25" width="22.5" height="22.5"></rect>
                <rect id="Rectangle-Copy-99" stroke="#FFFFFF" stroke-width="0.5" x="44.25" y="48.25" width="22.5" height="22.5"></rect>
                <rect id="Rectangle-Copy-100" stroke="#FFFFFF" stroke-width="0.5" x="154.25" y="48.25" width="22.5" height="22.5"></rect>
                <rect id="Rectangle-Copy-101" stroke="#FFFFFF" stroke-width="0.5" x="44.25" y="114.25" width="22.5" height="22.5"></rect>
                <rect id="Rectangle-Copy-102" stroke="#FFFFFF" stroke-width="0.5" x="154.25" y="114.25" width="22.5" height="22.5"></rect>
                <rect id="Rectangle-Copy-103" stroke="#FFFFFF" stroke-width="0.5" x="22.25" y="48.25" width="22.5" height="22.5"></rect>
                <rect id="Rectangle-Copy-104" stroke="#FFFFFF" stroke-width="0.5" x="132.25" y="48.25" width="22.5" height="22.5"></rect>
                <rect id="Rectangle-Copy-105" stroke="#FFFFFF" stroke-width="0.5" x="22.25" y="114.25" width="22.5" height="22.5"></rect>
                <rect id="Rectangle-Copy-106" stroke="#FFFFFF" stroke-width="0.5" x="132.25" y="114.25" width="22.5" height="22.5"></rect>
                <rect id="Rectangle-Copy-107" stroke="#FFFFFF" stroke-width="0.5" x="66.25" y="48.25" width="22.5" height="22.5"></rect>
                <rect id="Rectangle-Copy-108" stroke="#FFFFFF" stroke-width="0.5" x="176.25" y="48.25" width="22.5" height="22.5"></rect>
                <rect id="Rectangle-Copy-109" stroke="#FFFFFF" stroke-width="0.5" x="66.25" y="114.25" width="22.5" height="22.5"></rect>
                <rect id="Rectangle-Copy-110" stroke="#FFFFFF" stroke-width="0.5" x="176.25" y="114.25" width="22.5" height="22.5"></rect>
                <rect id="Rectangle-Copy-111" stroke="#FFFFFF" stroke-width="0.5" x="88.25" y="48.25" width="22.5" height="22.5"></rect>
                <rect id="Rectangle-Copy-112" stroke="#FFFFFF" stroke-width="0.5" x="198.25" y="48.25" width="22.5" height="22.5"></rect>
                <rect id="Rectangle-Copy-113" stroke="#FFFFFF" stroke-width="0.5" x="88.25" y="114.25" width="22.5" height="22.5"></rect>
                <rect id="Rectangle-Copy-114" stroke="#FFFFFF" stroke-width="0.5" x="198.25" y="114.25" width="22.5" height="22.5"></rect>
                <rect id="Rectangle-Copy-115" stroke="#FFFFFF" stroke-width="0.5" x="0.25" y="70.25" width="22.5" height="22.5"></rect>
                <rect id="Rectangle-Copy-116" stroke="#FFFFFF" stroke-width="0.5" x="110.25" y="70.25" width="22.5" height="22.5"></rect>
                <rect id="Rectangle-Copy-117" stroke="#FFFFFF" stroke-width="0.5" x="0.25" y="136.25" width="22.5" height="22.5"></rect>
                <rect id="Rectangle-Copy-118" stroke="#FFFFFF" stroke-width="0.5" x="110.25" y="136.25" width="22.5" height="22.5"></rect>
                <rect id="Rectangle-Copy-119" stroke="#FFFFFF" stroke-width="0.5" x="44.25" y="70.25" width="22.5" height="22.5"></rect>
                <rect id="Rectangle-Copy-120" stroke="#FFFFFF" stroke-width="0.5" x="154.25" y="70.25" width="22.5" height="22.5"></rect>
                <rect id="Rectangle-Copy-121" stroke="#FFFFFF" stroke-width="0.5" x="44.25" y="136.25" width="22.5" height="22.5"></rect>
                <rect id="Rectangle-Copy-122" stroke="#FFFFFF" stroke-width="0.5" x="154.25" y="136.25" width="22.5" height="22.5"></rect>
                <rect id="Rectangle-Copy-123" stroke="#FFFFFF" stroke-width="0.5" x="22.25" y="70.25" width="22.5" height="22.5"></rect>
                <rect id="Rectangle-Copy-124" stroke="#FFFFFF" stroke-width="0.5" x="132.25" y="70.25" width="22.5" height="22.5"></rect>
                <rect id="Rectangle-Copy-125" stroke="#FFFFFF" stroke-width="0.5" x="22.25" y="136.25" width="22.5" height="22.5"></rect>
                <rect id="Rectangle-Copy-126" stroke="#FFFFFF" stroke-width="0.5" x="132.25" y="136.25" width="22.5" height="22.5"></rect>
                <rect id="Rectangle-Copy-127" stroke="#FFFFFF" stroke-width="0.5" x="66.25" y="70.25" width="22.5" height="22.5"></rect>
                <rect id="Rectangle-Copy-128" stroke="#FFFFFF" stroke-width="0.5" x="176.25" y="70.25" width="22.5" height="22.5"></rect>
                <rect id="Rectangle-Copy-129" stroke="#FFFFFF" stroke-width="0.5" x="66.25" y="136.25" width="22.5" height="22.5"></rect>
                <rect id="Rectangle-Copy-130" stroke="#FFFFFF" stroke-width="0.5" x="176.25" y="136.25" width="22.5" height="22.5"></rect>
                <rect id="Rectangle-Copy-131" stroke="#FFFFFF" stroke-width="0.5" x="88.25" y="70.25" width="22.5" height="22.5"></rect>
                <rect id="Rectangle-Copy-132" stroke="#FFFFFF" stroke-width="0.5" x="198.25" y="70.25" width="22.5" height="22.5"></rect>
                <rect id="Rectangle-Copy-133" stroke="#FFFFFF" stroke-width="0.5" x="88.25" y="136.25" width="22.5" height="22.5"></rect>
                <rect id="Rectangle-Copy-134" stroke="#FFFFFF" stroke-width="0.5" x="198.25" y="136.25" width="22.5" height="22.5"></rect>
                <rect id="Rectangle-Copy-135" stroke="#FFFFFF" stroke-width="0.5" x="0.25" y="92.25" width="22.5" height="22.5"></rect>
                <rect id="Rectangle-Copy-136" stroke="#FFFFFF" stroke-width="0.5" x="110.25" y="92.25" width="22.5" height="22.5"></rect>
                <rect id="Rectangle-Copy-137" stroke="#FFFFFF" stroke-width="0.5" x="44.25" y="92.25" width="22.5" height="22.5"></rect>
                <rect id="Rectangle-Copy-138" stroke="#FFFFFF" stroke-width="0.5" x="154.25" y="92.25" width="22.5" height="22.5"></rect>
                <rect id="Rectangle-Copy-139" stroke="#FFFFFF" stroke-width="0.5" x="22.25" y="92.25" width="22.5" height="22.5"></rect>
                <rect id="Rectangle-Copy-140" stroke="#FFFFFF" stroke-width="0.5" x="132.25" y="92.25" width="22.5" height="22.5"></rect>
                <rect id="Rectangle-Copy-141" stroke="#FFFFFF" stroke-width="0.5" x="66.25" y="92.25" width="22.5" height="22.5"></rect>
                <rect id="Rectangle-Copy-142" stroke="#FFFFFF" stroke-width="0.5" x="176.25" y="92.25" width="22.5" height="22.5"></rect>
                <rect id="Rectangle-Copy-143" stroke="#FFFFFF" stroke-width="0.5" x="88.25" y="92.25" width="22.5" height="22.5"></rect>
                <rect id="Rectangle-Copy-144" stroke="#FFFFFF" stroke-width="0.5" x="198.25" y="92.25" width="22.5" height="22.5"></rect>
            </g>
        </g>
    </g>
</svg>