<?xml version="1.0" encoding="UTF-8"?>
<svg width="38px" height="48px" viewBox="0 0 38 48" version="1.1" xmlns="http://www.w3.org/2000/svg" xmlns:xlink="http://www.w3.org/1999/xlink">
    <!-- Generator: Sketch 55.2 (78181) - https://sketchapp.com -->
    <title>pinterest</title>
    <desc>Created with Sketch.</desc>
    <g id="Icons" stroke="none" stroke-width="1" fill="none" fill-rule="evenodd">
        <g id="pinterest" transform="translate(-6.000000, -1.000000)" fill="#4A4A4A">
            <g transform="translate(5.000000, 1.000000)" id="Path">
                <path d="M16.6401024,31.7468067 C15.3649176,38.3549315 13.8075994,44.6904177 9.1944024,48 C7.77062412,38.0117333 11.2858803,30.5108133 12.9179808,22.5471758 C10.1354946,17.9171205 13.252559,8.59749021 19.122488,10.894278 C26.3448122,13.7190629 12.8674784,28.1093861 21.9146862,29.9074565 C31.361057,31.7832865 35.2176897,13.706583 29.3599006,7.82757432 C20.8968693,-0.660700392 4.72397168,7.63413535 6.712988,19.7871905 C7.19664529,22.7588547 10.3020553,23.6598099 7.9536952,27.760428 C2.53731628,26.5733943 0.920269319,22.3508568 1.12859159,16.7204869 C1.46365537,7.50597604 9.5051862,1.05385046 17.570997,0.161535221 C27.7715041,-0.967418756 37.3451019,3.86279547 38.6669043,13.3475449 C40.1557529,24.0529278 34.0634192,35.6477459 23.1553934,34.8135104 C20.1990625,34.5864716 18.9573841,33.1387993 16.6401024,31.7468067 Z"></path>
            </g>
        </g>
    </g>
</svg>