<?xml version="1.0" encoding="UTF-8"?>
<svg width="42px" height="34px" viewBox="0 0 42 34" version="1.1" xmlns="http://www.w3.org/2000/svg" xmlns:xlink="http://www.w3.org/1999/xlink">
    <!-- Generator: Sketch 55.2 (78181) - https://sketchapp.com -->
    <title>twitter copy</title>
    <desc>Created with Sketch.</desc>
    <g id="Icons" stroke="none" stroke-width="1" fill="none" fill-rule="evenodd">
        <g id="twitter" transform="translate(-4.000000, -8.000000)" fill="#4A4A4A">
            <g id="twitter-copy" transform="translate(3.000000, 8.000000)">
                <path d="M42.9,4 C41.3614723,4.7 39.7030593,5.16 37.9847036,5.38 C39.743021,4.32 41.1017208,2.64 41.741109,0.62 C40.082696,1.62 38.2444551,2.32 36.3063098,2.72 C34.7278203,1 32.5099426,0 29.9923518,0 C25.2968451,0 21.4605163,3.84 21.4605163,8.58 C21.4605163,9.26 21.5404398,9.92 21.6803059,10.54 C14.5671128,10.18 8.233174,6.76 4.01720841,1.58 C3.27791587,2.84 2.8583174,4.32 2.8583174,5.88 C2.8583174,8.86 4.35688337,11.5 6.67466539,13 C5.25602294,13 3.93728489,12.6 2.77839388,12 C2.77839388,12 2.77839388,12 2.77839388,12.06 C2.77839388,16.22 5.73556405,19.7 9.65181644,20.48 C8.93250478,20.68 8.17323136,20.78 7.39397706,20.78 C6.85449331,20.78 6.31500956,20.72 5.79550669,20.62 C6.87447419,24 10.0114723,26.52 13.7878585,26.58 C10.8706501,28.9 7.17418738,30.26 3.13804971,30.26 C2.45869981,30.26 1.7793499,30.22 1.1,30.14 C4.89636711,32.58 9.41204589,34 14.2474187,34 C29.9923518,34 38.6440727,20.92 38.6440727,9.58 C38.6440727,9.2 38.6440727,8.84 38.6240918,8.46 C40.3024857,7.26 41.741109,5.74 42.9,4 Z" id="Path"></path>
            </g>
        </g>
    </g>
</svg>